<defs>
<font horiz-adv-x="1176" ><font-face
    font-family="charissilb"
    units-per-em="2048"
    panose-1="2 0 8 0 7 0 0 2 0 4"
    ascent="2450"
    descent="-900"
    alphabetic="0" />
<missing-glyph horiz-adv-x="1400" d="M150 50H1250V1750H150V50ZM100 1800H1300V0H100V1800Z" />
<glyph unicode=" " glyph-name="space" horiz-adv-x="600" />
<glyph unicode="!" glyph-name="exclam" horiz-adv-x="696" d="M514 143Q514 108 501 77T465 24T413 -12T350 -25Q325 -25 296 -16T242 14T201 66T184 143Q184 183 199 213T238 264T291 294T350 305Q378 305 407 294T460 262T499 211T514 143ZM406 426H295L182
1241Q182 1284 195 1315T231 1367T284 1397T350 1407Q384 1407 414 1398T467 1368T503 1317T516 1241L406 426Z" />
<glyph unicode="&quot;" glyph-name="quotedbl" horiz-adv-x="803" d="M162 854L82 1333Q82 1390 109 1426T199 1462Q261 1462 289 1426T317 1333L238 854H162ZM563 854L483 1333Q483 1390 510 1426T600 1462Q663 1462 692 1426T721 1333L639 854H563Z" />
<glyph unicode="#" glyph-name="numbersign" horiz-adv-x="1518" d="M678 848L588 578H842L936 848H678ZM1079 848L991 578H1309V449H946L791 -49L649 -14L801 449H545L385 -49L248 -12L401 449H127V578H442L530 848H227V983H573L731 1454L868 1417L717 983H983L1135
1454L1276 1415L1122 983H1391V848H1079Z" />
<glyph unicode="$" glyph-name="dollar" horiz-adv-x="1202" d="M834 346Q834 397 815 432T769 490T709 526T651 547V133Q702 140 742 165Q759 175 775 191T805 228T826 279T834 346ZM530 1237Q489 1231 456 1210Q428 1191 406 1154T383 1051Q383 988 405 949T456
888Q489 862 530 850V1237ZM1094 420Q1094 332 1062 261T970 137T830 50T651 2V-209H530V0Q459 3 386 12Q323 20 250 33T111 68V422H256L299 182Q331 162 371 151T446 135Q487 129 530 127V578Q492 589 447 604T357 640T269 690T195 760T143 854T123 977Q123 1047
140 1101T186 1196T251 1265T326 1313Q416 1358 530 1368V1520H651V1368Q714 1368 779 1359T899 1338Q962 1325 1022 1309V967H881L842 1194Q840 1201 815 1209T757 1225T694 1238T651 1243V821Q685 812 731 799T826 765T923 715T1009 644T1070 547T1094 420Z"
/>
<glyph unicode="%" glyph-name="percent" horiz-adv-x="1831" d="M541 979Q541 1073 531 1137T504 1239T463 1294T412 1311Q383 1311 357 1295T311 1240T278 1137T266 979Q266 884 278 820T310 717T357 662T412 645Q439 645 463 661T504 717T531 820T541 979ZM1548
395Q1548 489 1539 553T1512 655T1471 710T1419 727Q1392 727 1367 711T1322 656T1292 553T1280 395Q1280 300 1291 237T1322 135T1366 80T1419 63Q1447 63 1471 79T1512 134T1538 236T1548 395ZM762 979Q762 879 740 800T675 665T565 579T412 549Q324 549 258
579T148 664T81 799T59 979Q59 1079 81 1158T147 1292T258 1377T412 1407Q499 1407 565 1378T674 1293T740 1158T762 979ZM563 0H418L1268 1374H1415L563 0ZM1772 395Q1772 295 1750 216T1683 82T1573 -3T1419 -33Q1332 -33 1267 -4T1158 81T1093 216T1071 395Q1071
495 1092 574T1157 709T1266 793T1419 823Q1507 823 1573 794T1683 709T1749 575T1772 395Z" />
<glyph unicode="&amp;" glyph-name="ampersand" horiz-adv-x="1505" d="M1026 0V49L940 145Q892 97 829 60Q802 44 769 29T697 1T614 -18T520 -25Q421 -25 340 4T200 85T110 212T78 377Q78 450 98 506T157 605T248 678T365 729Q362 731 349 741Q334 752 313 771T268
818T224 881T190 960T176 1053Q176 1138 211 1203T307 1312T449 1378T621 1401Q661 1401 706 1395T797 1374T883 1335T956 1276T1007 1191T1026 1079Q1026 1010 1005 959T952 871T882 809T810 770T751 749T719 741L1034 414Q1058 445 1079 481Q1097 512 1115 553T1143
643Q1144 652 1136 664T1122 678L1016 696V793H1446V696L1305 668Q1280 587 1247 524T1185 417Q1150 366 1114 328L1307 121L1473 104V0H1026ZM451 657Q423 638 402 612Q384 589 369 554T354 471Q354 384 380 323T450 224T547 169T655 152Q707 152 744 164T807
192Q836 210 856 233L451 657ZM772 1075Q772 1117 761 1154T729 1218T678 1262T610 1278Q575 1278 545 1266T493 1233T459 1183T446 1118Q446 1084 456 1051T490 981T551 904T641 815Q672 843 696 871T738 929T763 995T772 1075Z" />
<glyph unicode="&apos;" glyph-name="quotesingle" horiz-adv-x="360" d="M143 854L63 1333Q63 1390 90 1426T180 1462Q242 1462 270 1426T299 1333L217 854H143Z" />
<glyph unicode="(" glyph-name="parenleft" horiz-adv-x="803" d="M733 -291Q582 -287 468 -224T276 -47T160 228T121 590Q121 790 160 950T276 1224T467 1400T733 1468V1358Q625 1343 557 1281T449 1117T396 882T381 590Q381 432 395 298T449 62T556 -102T733
-180V-291Z" />
<glyph unicode=")" glyph-name="parenright" horiz-adv-x="803" d="M682 590Q682 389 643 228T527 -47T335 -224T70 -291V-180Q177 -165 245 -102T353 62T407 297T422 590Q422 747 407 881T353 1117T246 1280T70 1358V1468Q220 1463 334 1401T526 1225T643 951T682 590Z" />
<glyph unicode="*" glyph-name="asterisk" horiz-adv-x="1024" d="M418 733L262 692L256 852L475 1012L500 987L418 733ZM463 1038L197 1036L109 1169L256 1229L475 1067L463 1038ZM762 692L606 733L524 987L549 1012L768 852L762 692ZM528 1092H494L410 1348L512
1470L614 1348L528 1092ZM825 1036L561 1038L547 1069L764 1229L915 1169L825 1036Z" />
<glyph unicode="+" glyph-name="plus" horiz-adv-x="2048" d="M1087 551V0H961V551H410V678H961V1229H1087V678H1638V551H1087Z" />
<glyph unicode="," glyph-name="comma" horiz-adv-x="651" d="M496 121Q496 57 478 -2T430 -113T358 -209T269 -285T172 -337T72 -360V-260Q111 -254 155 -238T237 -189T297 -108T317 14H193Q174 29 162 45T143 79T132 113T129 145Q129 184 143 215T182 269T237
304T301 317Q394 317 445 264T496 121Z" />
<glyph unicode="-" glyph-name="hyphen" horiz-adv-x="672" d="M68 385V602H604V385H68Z" />
<glyph unicode="." glyph-name="period" horiz-adv-x="651" d="M471 145Q471 110 458 79T422 25T368 -11T301 -25Q266 -25 235 -12T180 25T143 79T129 145Q129 181 142 212T179 266T234 303T301 317Q337 317 368 304T422 267T458 212T471 145Z" />
<glyph unicode="/" glyph-name="slash" horiz-adv-x="1026" d="M160 -190H0L864 1374H1026L160 -190Z" />
<glyph unicode="0" glyph-name="zero" horiz-adv-x="1202" d="M831 686Q831 730 829 791T820 919T799 1049T758 1165T694 1248T600 1280Q545 1280 507 1249T444 1166T405 1050T383 919T375 792T373 686Q373 641 374 580T383 454T404 324T444 210T507 128T600 96Q655
96 693 127T758 209T798 324T820 453T829 580T831 686ZM1130 686Q1130 542 1100 413T1005 186T840 32T600 -25Q461 -25 362 32T198 186T104 412T74 686Q74 830 104 959T198 1186T361 1341T600 1399Q740 1399 840 1342T1004 1186T1099 959T1130 686Z" />
<glyph unicode="1" glyph-name="one" horiz-adv-x="1202" d="M236 0V106L412 113Q430 115 443 127T457 158V1182L152 1139V1247L594 1407H745V158Q745 139 758 127T791 113L952 106V0H236Z" />
<glyph unicode="2" glyph-name="two" horiz-adv-x="1202" d="M88 0V170Q129 204 195 252T337 361T489 493T628 643T729 807T768 983Q768 1044 750 1096T699 1187T619 1248T514 1270Q493 1270 479 1268T452 1262T427 1253T397 1243V967Q375 956 352 947Q332 939
308 934T258 928Q183 928 144 969T104 1079Q104 1143 128 1192T194 1278T287 1339T395 1379T505 1400T604 1407Q701 1407 786 1378T934 1296T1033 1168T1069 1001Q1069 891 1016 793T867 601T642 414T360 221H942L981 401H1112V0H88Z" />
<glyph unicode="3" glyph-name="three" horiz-adv-x="1202" d="M1112 393Q1112 326 1090 269T1027 165T932 80T811 18T672 -20T522 -33Q422 -33 342 -10T206 51T119 138T88 238Q88 281 102 308T139 351T189 373T240 379Q267 379 289 374T328 360L393 129Q427 120
464 107T543 94Q596 94 644 116T730 177T789 268T811 381Q811 429 793 474T739 554T650 610T524 631Q501 631 476 630T430 626Q405 623 381 621V774Q398 772 411 772H438Q496 772 554 783T658 824T734 901T764 1024Q764 1073 744 1117T689 1196T606 1250T502 1270Q487
1270 469 1266T433 1257Q414 1252 393 1245V993Q365 975 336 970T283 965Q251 965 222 974T171 1001T136 1046T123 1112Q123 1176 161 1230T264 1323T415 1385T598 1407Q682 1407 765 1385T914 1319T1021 1207T1063 1047Q1063 982 1041 933T985 849T910 790T830
752T760 730Q732 724 718 723Q731 722 762 720Q797 717 841 706T933 672T1021 613T1086 522T1112 393Z" />
<glyph unicode="4" glyph-name="four" horiz-adv-x="1202" d="M702 1090L272 551H702V1090ZM963 385V-33H702V383H74V559L741 1407H963V551H1130V385H963Z" />
<glyph unicode="5" glyph-name="five" horiz-adv-x="1202" d="M1120 465Q1120 349 1069 257T932 101T736 2T508 -33Q430 -33 354 -16T218 35T121 119T84 236Q84 259 93 282T121 325T168 357T233 369Q253 369 275 364T326 350L391 106Q416 102 437 98Q455 95 472
93T498 90Q587 90 649 124T751 206T809 307T827 395Q827 464 799 518T721 611T605 669T463 690Q410 690 357 685T260 673Q209 666 162 657V1374H1042V1147H336V817Q379 830 426 841Q466 850 516 858T618 866Q728 866 820 837T979 754T1083 628T1120 465Z" />
<glyph unicode="6" glyph-name="six" horiz-adv-x="1202" d="M838 432Q838 499 822 555T773 651T689 713T569 735Q525 735 489 728T426 713Q395 703 371 692Q367 657 367 626T367 571Q368 543 369 520Q369 449 383 375T428 239T507 139T623 100Q677 100 717 127T784
201T824 307T838 432ZM1130 494Q1130 375 1090 278T979 111T817 5T621 -33Q492 -33 390 8T218 129T111 326T74 596Q74 797 137 950T317 1205T595 1358T956 1407V1247L866 1257Q755 1249 671 1216T529 1125T434 987T383 807Q425 835 476 858Q519 877 576 893T700
909Q808 909 888 872T1022 775T1103 641T1130 494Z" />
<glyph unicode="7" glyph-name="seven" horiz-adv-x="1202" d="M436 29V-33H174L842 1128H250L219 938H76V1374H1126V1229L436 29Z" />
<glyph unicode="8" glyph-name="eight" horiz-adv-x="1202" d="M850 305Q850 355 830 395T776 466T701 523T614 567T529 603T455 635Q446 623 426 603T386 552T351 482T336 391Q336 331 357 278T414 185T500 122T604 98Q652 98 696 111T774 151T829 216T850 305ZM823
1030Q823 1078 808 1122T764 1201T695 1257T606 1278Q565 1278 530 1263T468 1221T426 1158T410 1081Q410 1020 437 975T508 895T609 833T723 780Q738 796 755 820T788 875T813 946T823 1030ZM1128 377Q1128 272 1083 195T962 68T789 -8T588 -33Q477 -33 383 -3T220
82T113 210T74 371Q74 454 104 509T177 599T270 654T358 686Q327 698 288 723T213 787T153 877T129 993Q129 1109 173 1188T290 1316T451 1386T631 1407Q712 1407 791 1385T934 1318T1036 1206T1075 1047Q1075 974 1050 923T987 835T905 774T821 731Q835 726 863
717T925 690T995 646T1060 583T1109 494T1128 377Z" />
<glyph unicode="9" glyph-name="nine" horiz-adv-x="1202" d="M836 852Q836 925 822 1000T776 1136T697 1235T582 1274Q528 1274 488 1247T421 1173T381 1066T367 940Q367 872 383 817T432 721T515 659T635 637Q678 637 715 643T778 658Q809 668 834 680Q836 714
836 745T837 800Q837 828 836 852ZM1130 776Q1130 575 1067 423T887 168T609 16T248 -33V127L338 117Q449 124 532 158T674 249T768 385T819 565Q777 536 727 514Q684 494 627 479T504 463Q396 463 315 500T181 598T101 732T74 879Q74 998 114 1095T225 1262T387
1369T584 1407Q712 1407 813 1366T985 1244T1093 1046T1130 776Z" />
<glyph unicode=":" glyph-name="colon" horiz-adv-x="651" d="M471 852Q471 816 458 785T422 731T368 695T301 682Q266 682 235 695T180 731T143 785T129 852Q129 887 142 918T179 973T234 1010T301 1024Q337 1024 368 1011T422 974T458 919T471 852ZM471 145Q471
110 458 79T422 25T368 -11T301 -25Q266 -25 235 -12T180 25T143 79T129 145Q129 181 142 212T179 266T234 303T301 317Q337 317 368 304T422 267T458 212T471 145Z" />
<glyph unicode=";" glyph-name="semicolon" horiz-adv-x="651" d="M471 852Q471 816 458 785T422 731T368 695T301 682Q266 682 235 695T180 731T143 785T129 852Q129 887 142 918T179 973T234 1010T301 1024Q337 1024 368 1011T422 974T458 919T471 852ZM496
121Q496 57 478 -2T430 -113T358 -209T269 -285T172 -337T72 -360V-260Q111 -254 155 -238T237 -189T297 -108T317 14H193Q174 29 162 45T143 79T132 113T129 145Q129 184 143 215T182 269T237 304T301 317Q394 317 445 264T496 121Z" />
<glyph unicode="&lt;" glyph-name="less" horiz-adv-x="2048" d="M410 551V678L1638 1149V1022L541 614L1638 207V80L410 551Z" />
<glyph unicode="=" glyph-name="equal" horiz-adv-x="2048" d="M410 365V492H1638V365H410ZM410 737V864H1638V737H410Z" />
<glyph unicode="&gt;" glyph-name="greater" horiz-adv-x="2048" d="M410 80V207L1507 614L410 1022V1149L1638 678V551L410 80Z" />
<glyph unicode="?" glyph-name="question" horiz-adv-x="1069" d="M592 133Q592 99 579 70T542 20T489 -13T424 -25Q391 -25 363 -12T313 25T280 78T268 141Q268 175 280 204T314 256T364 292T426 305Q463 305 493 291T546 254T580 199T592 133ZM938 1018Q938
953 919 900T869 803T798 726T716 668Q618 610 494 580V406H354V678Q437 700 502 745Q530 764 556 790T604 850T638 926T651 1022Q651 1080 635 1127T585 1209T501 1263T383 1282L291 1036Q290 1035 286 1034Q283 1033 279 1033T266 1032Q246 1032 216 1034T158
1050T110 1089T90 1163Q90 1230 126 1276T219 1352T343 1394T473 1407Q572 1407 657 1380T804 1302T902 1179T938 1018Z" />
<glyph unicode="@" glyph-name="at" horiz-adv-x="1917" d="M1798 754Q1798 652 1776 565T1715 405T1625 276T1514 181T1393 122T1270 102Q1223 102 1192 114T1140 145T1109 191T1094 246Q1062 219 1029 194T961 148T889 116T813 104Q743 104 690 129T601 200T547
308T528 444Q528 559 570 660T686 838T857 959T1067 1004Q1091 1004 1115 998T1164 983T1210 962T1253 942L1280 993H1452L1442 955Q1435 925 1425 881T1402 783T1376 674Q1346 545 1309 385Q1301 351 1297 323T1297 275T1314 244T1356 233Q1376 233 1405 248T1466
294T1529 368T1584 470T1624 598T1640 752Q1640 849 1617 927T1555 1067T1463 1172T1349 1246T1224 1289T1096 1303Q988 1303 890 1277T706 1202T550 1083T430 926T353 736T326 518Q326 360 375 228T514 -2T731 -153T1014 -207Q1095 -207 1168 -194T1309 -157T1442
-103T1573 -35L1616 -137Q1547 -173 1473 -206T1319 -265T1151 -306T965 -322Q845 -322 736 -297T533 -222T363 -103T232 56T149 252T119 481Q119 630 155 757T255 987T409 1168T603 1300T827 1380T1069 1407Q1235 1407 1370 1363T1600 1236T1746 1031T1798 754ZM1167
795Q1170 807 1166 825T1150 861T1120 890T1075 903Q1013 903 959 870T863 779T798 639T774 463Q774 405 785 365T816 299T858 262T905 250Q938 250 964 262T1012 294T1052 335T1085 375L1167 795Z" />
<glyph unicode="A" glyph-name="A" horiz-adv-x="1405" d="M631 1092L459 600H807L631 1092ZM829 0V104L950 119Q960 121 967 132T969 154L858 479H420L307 162Q301 146 313 133T336 119L451 104V0H10V104L125 121L584 1407H817L1272 158Q1280 139 1287 132T1317
119L1395 104V0H829Z" />
<glyph unicode="B" glyph-name="B" horiz-adv-x="1309" d="M1233 399Q1233 303 1212 237T1156 126T1073 56T973 19T866 3T760 0H57V104L168 115Q187 117 200 128T213 160V1214Q213 1234 200 1246T168 1260L57 1270V1374H717Q754 1374 800 1371T895 1356T990 1323T1072
1267T1131 1180T1153 1057Q1153 995 1136 948T1092 866T1032 807T967 767T906 743T863 731Q900 730 942 724T1026 704T1104 665T1170 605T1216 518T1233 399ZM926 385Q926 517 850 581T608 645H571Q549 645 506 643V121Q529 120 549 119Q566 118 581 118T602 117Q680
117 740 131T842 177T905 260T926 385ZM852 1024Q852 1069 842 1111T804 1187T724 1240T590 1260H580Q577 1260 570 1260T548 1258T506 1255V768Q517 767 528 767Q537 766 545 766H557Q645 766 702 786T792 840T839 922T852 1024Z" />
<glyph unicode="C" glyph-name="C" horiz-adv-x="1303" d="M1229 49Q1210 41 1170 28T1072 1T945 -23T795 -33Q690 -33 596 -9T422 60T278 169T169 313T100 488T76 688Q76 848 131 980T284 1207T513 1354T797 1407Q855 1407 903 1402T999 1387T1102 1360T1229
1321V973H1069L1024 1202Q1024 1207 1016 1218T997 1235Q989 1239 973 1244T936 1255T893 1264T852 1268Q747 1268 663 1227T519 1109T429 925T397 684Q397 612 408 541T442 405T503 285T593 188T713 124T868 100Q906 100 938 109T987 127Q995 130 1007 143T1022
166L1067 408H1229V49Z" />
<glyph unicode="D" glyph-name="D" horiz-adv-x="1483" d="M1077 680Q1077 798 1059 886T1010 1038T935 1144T843 1210T741 1245T635 1255H506V121L676 125Q720 126 767 137T858 173T942 239T1012 342T1059 487T1077 680ZM1407 702Q1407 526 1357 395T1213 175T987
44T692 0H53V104L166 115Q184 117 198 128T213 160V1214Q213 1234 199 1246T166 1260L53 1270V1374H680Q855 1374 990 1325T1218 1188T1359 976T1407 702Z" />
<glyph unicode="E" glyph-name="E" horiz-adv-x="1225" d="M53 0V104L166 115Q184 117 198 128T213 160V1214Q213 1234 199 1246T166 1260L53 1270V1374H1098V1047H950L918 1217Q914 1232 905 1243T881 1255H500V774H743Q757 774 766 787T778 811L797 950H924V469H797L778
608Q776 619 767 632T743 645H500V123H946Q959 123 970 137T983 162L1014 375H1163V0H53Z" />
<glyph unicode="F" glyph-name="F" horiz-adv-x="1145" d="M942 1024L913 1210Q910 1226 901 1237T877 1249H506V745H760Q774 745 783 758T795 782L815 922H942V438H815L795 578Q793 589 783 601T760 614H506V160Q506 140 519 129T551 115L684 104V0H55V104L166
115Q184 117 198 128T213 160V1214Q213 1234 199 1246T166 1260L49 1270V1374H1090V1024H942Z" />
<glyph unicode="G" glyph-name="G" horiz-adv-x="1466" d="M1315 565Q1296 563 1282 552T1268 520V63Q1207 36 1133 15Q1069 -3 983 -18T793 -33Q639 -33 508 18T281 165T131 393T76 690Q76 856 131 989T283 1215T515 1357T809 1407Q910 1407 994 1395T1140 1367Q1212
1349 1270 1327V973H1110L1069 1194Q1067 1205 1056 1218T1032 1237Q984 1255 943 1263T885 1272Q796 1272 725 1250T599 1188T505 1094T441 976T405 842T393 698Q393 566 426 460T522 278T679 162T893 121Q907 121 927 120T985 121V520Q985 540 971 552T938 565L801
575V680H1419V575L1315 565Z" />
<glyph unicode="H" glyph-name="H" horiz-adv-x="1575" d="M918 0V104L1024 115Q1043 117 1056 128T1069 160V655H506V160Q506 140 519 129T551 115L659 104V0H61V104L168 115Q187 117 200 128T213 160V1214Q213 1234 200 1246T168 1260L61 1270V1374H659V1270L551
1260Q532 1258 519 1246T506 1214V786H1069V1214Q1069 1234 1056 1246T1024 1260L918 1270V1374H1513V1270L1407 1260Q1390 1258 1376 1246T1362 1214V160Q1362 140 1375 129T1407 115L1513 104V0H918Z" />
<glyph unicode="I" glyph-name="I" horiz-adv-x="735" d="M47 0V104L174 115Q193 117 206 128T219 160V1214Q219 1234 206 1246T174 1260L47 1270V1374H686V1270L559 1260Q542 1258 527 1246T512 1214V160Q512 140 527 129T559 115L686 104V0H47Z" />
<glyph unicode="J" glyph-name="J" horiz-adv-x="1049" d="M879 1260Q860 1258 847 1246T834 1214V496Q834 377 806 280T720 113T571 5T354 -33Q312 -33 268 -27T184 -13T108 6T49 25V399H209L256 125Q259 115 266 107Q272 100 282 95T309 90Q366 90 409 111T483
180T528 307T543 502V1214Q543 1234 529 1246T498 1260L371 1270V1374H1004V1270L879 1260Z" />
<glyph unicode="K" glyph-name="K" horiz-adv-x="1397" d="M952 0V76L618 600H506V160Q506 140 519 129T551 115L659 104V0H59V104L168 115Q187 117 200 128T213 160V1214Q213 1234 200 1246T168 1260L59 1270V1374H659V1270L551 1260Q532 1258 519 1246T506 1214V698H563L1004
1235Q1009 1241 1007 1250T993 1260L877 1270V1374H1346V1270Q1324 1268 1299 1266Q1278 1264 1253 1262T1202 1257L821 803L1251 117L1397 104V0H952Z" />
<glyph unicode="L" glyph-name="L" horiz-adv-x="1135" d="M55 0V104L168 115Q187 117 200 128T213 160V1214Q213 1234 200 1246T168 1260L55 1270V1374H666V1270L551 1260Q532 1258 519 1246T506 1214V125H862Q873 125 881 130T896 142T906 158T911 172L938 408H1102V0H55Z"
/>
<glyph unicode="M" glyph-name="M" horiz-adv-x="1849" d="M1196 0V104L1296 115Q1313 117 1327 128T1341 160V1235L930 0H772L369 1227V160Q369 140 383 129T414 115L524 104V0H51V104L166 115Q184 117 198 128T213 160V1214Q213 1234 199 1246T166 1260L51 1270V1374H639V1317L928
440L1214 1317V1374H1796V1270L1679 1260Q1661 1258 1648 1246T1634 1214V160Q1634 140 1647 129T1679 115L1796 104V0H1196Z" />
<glyph unicode="N" glyph-name="N" horiz-adv-x="1524" d="M1354 1260Q1337 1258 1323 1246T1309 1214V0H1059L369 1083V160Q369 140 383 129T414 115L528 104V0H55V104L168 115Q187 117 200 128T213 160V1214Q213 1234 200 1246T168 1260L57 1270V1374H563V1319L1153
395V1214Q1153 1234 1139 1246T1106 1260L989 1270V1374H1464V1270L1354 1260Z" />
<glyph unicode="O" glyph-name="O" horiz-adv-x="1548" d="M1145 672Q1145 792 1123 900T1055 1091T943 1221T786 1270Q715 1270 659 1246T561 1181T488 1083T439 963T412 829T403 690Q403 617 412 545T441 407T490 284T560 186T651 120T766 96Q834 96 889 120T986
187T1058 285T1107 405T1136 537T1145 672ZM1475 680Q1475 533 1426 404T1285 177T1067 24T786 -33Q633 -33 503 15T278 157T130 386T76 696Q76 847 123 977T258 1203T475 1352T768 1407Q874 1407 968 1381T1140 1307T1281 1193T1386 1045T1452 872T1475 680Z"
/>
<glyph unicode="P" glyph-name="P" horiz-adv-x="1253" d="M1178 958Q1178 870 1157 803T1097 685T1008 600T897 544T772 514T641 504Q612 504 580 504T506 508V160Q506 140 519 129T551 115L680 104V0H53V104L166 115Q184 117 198 128T213 160V1214Q213 1234
199 1246T166 1260L47 1270V1374H621Q690 1374 758 1369T888 1347T1003 1302T1095 1227T1156 1114T1178 958ZM872 948Q872 1020 854 1076T803 1170T724 1229T621 1249H506V631Q518 630 525 630T538 629H561Q632 630 689 647T787 702T850 800T872 948Z" />
<glyph unicode="Q" glyph-name="Q" horiz-adv-x="1548" d="M1145 672Q1145 792 1123 900T1055 1091T943 1221T786 1270Q715 1270 659 1246T561 1181T488 1083T439 963T412 829T403 690Q403 617 412 545T441 407T490 284T560 186T651 120T766 96Q834 96 889 120T986
187T1058 285T1107 405T1136 537T1145 672ZM1407 -330Q1301 -354 1214 -365T1044 -377Q934 -377 856 -352T729 -280T657 -167T633 -20Q509 2 407 59T231 208T117 421T76 696Q76 847 123 977T258 1203T475 1352T768 1407Q874 1407 968 1381T1140 1307T1281 1193T1386
1045T1452 872T1475 680Q1475 552 1437 437T1329 230T1160 73T938 -16Q936 -72 958 -114T1019 -186T1109 -231T1217 -246Q1247 -246 1293 -242T1407 -221V-330Z" />
<glyph unicode="R" glyph-name="R" horiz-adv-x="1442" d="M1442 0Q1374 -8 1326 -20T1239 -33Q1140 -33 1074 -6T965 66T894 168T846 284T803 401T750 502T670 574T547 602H506V160Q506 140 519 129T551 115L664 104V0H57V104L166 115Q184 117 198 128T213 160V1214Q213
1234 199 1246T166 1260L57 1270V1374H737Q775 1374 823 1369T920 1351T1017 1313T1102 1252T1161 1161T1184 1034Q1184 965 1166 913T1117 823T1048 758T969 715T892 689T827 676Q894 663 941 638T1020 578T1072 504T1107 422T1133 337T1160 257T1195 188T1248
135T1327 105T1442 104V0ZM877 995Q877 1125 799 1188T571 1251Q563 1252 552 1252H531Q519 1252 506 1251V727Q532 725 548 724T573 723Q621 723 674 732T773 771T847 854T877 995Z" />
<glyph unicode="S" glyph-name="S" horiz-adv-x="1098" d="M1022 401Q1022 293 977 212T857 76T682 -5T475 -33Q394 -33 323 -21T196 6Q132 23 76 45V420H238L272 172Q274 160 284 151T299 141Q323 131 349 123Q372 116 400 111T457 106Q502 106 549 117T634 151T697
211T721 299Q721 363 691 409T613 493T505 562T383 627Q329 656 279 689T189 766T127 864T104 991Q104 1091 144 1168T252 1299T409 1379T598 1407Q676 1407 746 1394T870 1366Q932 1348 985 1325V989H827L793 1208Q792 1212 788 1217T778 1227Q772 1232 764 1237Q753
1246 735 1253Q720 1259 697 1264T641 1270Q590 1270 545 1258T465 1223T410 1165T389 1085Q389 1031 412 990T473 915T562 855T666 801Q730 769 793 734T908 654T990 547T1022 401Z" />
<glyph unicode="T" glyph-name="T" horiz-adv-x="1247" d="M1065 999L1028 1227Q1025 1251 999 1251H770V160Q770 140 783 129T815 115L936 104V0H311V104L430 115Q449 117 463 128T477 160V1251H248Q220 1251 217 1227L180 999H33V1374H1214V999H1065Z" />
<glyph unicode="U" glyph-name="U" horiz-adv-x="1493" d="M1331 1260Q1314 1258 1300 1246T1286 1214V520Q1286 369 1252 264T1149 92T975 -3T725 -33Q461 -33 332 108T203 520V1214Q203 1234 189 1246T156 1260L45 1270V1374H651V1270L541 1260Q524 1258 510
1246T496 1214V504Q496 312 577 225T827 137Q908 137 965 163T1059 238T1113 353T1130 504V1214Q1130 1234 1117 1246T1085 1260L969 1270V1374H1440V1270L1331 1260Z" />
<glyph unicode="V" glyph-name="V" horiz-adv-x="1446" d="M1296 1253L825 -33H631L152 1251L20 1270V1374H604V1270L489 1255Q471 1252 468 1238T469 1210L793 319L1106 1212Q1109 1225 1105 1238T1077 1255L967 1270V1374H1425V1270L1296 1253Z" />
<glyph unicode="W" glyph-name="W" horiz-adv-x="1978" d="M1833 1253L1511 -33H1317L997 1032L684 -33H487L145 1253L20 1270V1374H578V1270L457 1257Q438 1255 437 1241T438 1214L655 403L942 1374H1163L1460 381L1665 1214Q1668 1227 1663 1240T1636 1257L1505
1270V1374H1958V1270L1833 1253Z" />
<glyph unicode="X" glyph-name="X" horiz-adv-x="1374" d="M739 0V104L864 113Q878 115 882 129T874 162L645 522L369 164Q361 155 360 147T362 131T370 120T381 115L504 104V0H20V104L152 121L559 655L176 1251L47 1270V1374H647V1270L539 1260Q528 1260 522
1245T528 1210L733 887L985 1212Q999 1229 993 1245T973 1262L864 1270V1374H1331V1270L1202 1251L819 754L1225 121L1354 104V0H739Z" />
<glyph unicode="Y" glyph-name="Y" horiz-adv-x="1358" d="M1219 1251L840 594V160Q840 140 853 129T885 115L1010 104V0H375V104L500 115Q517 117 532 128T547 160V537L152 1251L20 1270V1374H602V1270L494 1260Q483 1260 478 1245T483 1210L741 725L1020 1212Q1031
1231 1028 1246T1010 1262L885 1270V1374H1337V1270L1219 1251Z" />
<glyph unicode="Z" glyph-name="Z" horiz-adv-x="1190" d="M76 0V121L778 1249H326Q300 1249 297 1225L260 1001H111V1374H1104V1253L403 127H893Q918 127 924 150L965 403H1114V0H76Z" />
<glyph unicode="[" glyph-name="bracketleft" horiz-adv-x="918" d="M276 -270V1450H844V1327H530V-152H844V-270H276Z" />
<glyph unicode="\" glyph-name="backslash" horiz-adv-x="1012" d="M852 -190L0 1374H160L1012 -190H852Z" />
<glyph unicode="]" glyph-name="bracketright" horiz-adv-x="1206" d="M74 -270V-152H387V1327H74V1450H641V-270H74Z" />
<glyph unicode="^" glyph-name="asciicircum" horiz-adv-x="696" d="M526 1128L348 1323L170 1128H0L227 1479H469L696 1128H526Z" />
<glyph unicode="_" glyph-name="underscore" horiz-adv-x="696" d="M0 -340V-175H696V-340H0Z" />
<glyph unicode="`" glyph-name="grave" horiz-adv-x="766" d="M383 1128L51 1309Q40 1315 31 1325T15 1348T4 1372T0 1395Q0 1413 6 1432T25 1467T61 1493T117 1503Q138 1503 154 1500T184 1490T213 1470T246 1438L526 1128H383Z" />
<glyph unicode="a" glyph-name="a" horiz-adv-x="1133" d="M717 0L690 102Q637 66 579 38Q528 14 465 -5T334 -25Q278 -25 230 -7T145 46T87 130T66 240Q66 286 73 325T103 397T168 461T279 521T450 579T692 639V664Q692 679 693 691Q693 705 694 719Q695 748
688 781T660 843T601 890T502 909Q481 909 465 908T437 905Q424 903 414 901V707H203Q177 705 157 712Q140 718 126 733T111 780Q111 837 151 882T257 958T404 1007T567 1024Q655 1024 728 1011T853 961T934 855T963 676V150Q963 131 976 118T1008 102L1098 96V0H717ZM690
528Q591 508 527 487T424 439T371 378T356 297Q356 265 366 238T396 190T443 157T502 145Q535 145 568 152T629 167Q661 177 690 190V528Z" />
<glyph unicode="b" glyph-name="b" horiz-adv-x="1225" d="M1159 561Q1159 443 1119 341T1003 163T815 44T559 0H184V1329H41V1413L354 1516H459V930Q502 956 550 977Q592 994 645 1009T756 1024Q838 1024 911 993T1040 903T1127 757T1159 561ZM862 500Q862 583
843 648T787 760T695 830T567 854Q548 854 530 852T495 848L459 842V115Q477 115 484 114T502 113Q587 113 654 132T767 197T837 317T862 500Z" />
<glyph unicode="c" glyph-name="c" horiz-adv-x="1028" d="M965 90Q939 78 902 59T815 21T702 -11T561 -25Q441 -25 349 16T194 126T99 287T66 479Q66 600 107 700T220 873T388 984T594 1024Q675 1024 740 1008T851 961T923 890T948 799Q948 764 936 736T903 688T857
656T803 645Q771 645 750 649T713 659T687 673T666 688V918Q653 918 646 919T627 920Q580 920 534 896T450 825T390 706T367 539Q367 449 388 377T450 253T548 175T678 147Q725 147 772 160T858 190T926 223T965 248V90Z" />
<glyph unicode="d" glyph-name="d" horiz-adv-x="1247" d="M791 864Q767 874 741 882Q719 889 694 895T645 901Q574 901 521 872T434 792T382 672T365 524Q365 443 381 377T431 264T514 190T631 164Q659 164 687 169T739 183Q766 192 791 203V864ZM791 0V119Q779
113 748 90T673 41T576 -5T467 -25Q373 -25 299 13T173 118T94 277T66 477Q66 609 106 711T217 882T386 988T600 1024Q629 1024 662 1020T725 1011Q758 1006 791 999V1329H639V1413L958 1516H1063V150Q1063 131 1076 118T1108 102L1194 96V0H791Z" />
<glyph unicode="e" glyph-name="e" horiz-adv-x="1083" d="M727 668Q727 717 718 760T689 834T636 884T559 903Q502 903 464 878T402 812T368 721T358 623H727V668ZM1020 96Q967 61 901 35Q844 12 765 -6T588 -25Q457 -25 360 15T197 124T99 287T66 487Q66 603
102 701T206 871T369 983T582 1024Q702 1024 785 985T921 880T996 730T1020 557V508H348Q348 424 369 357T430 243T530 171T664 145Q742 145 806 162T919 202Q974 228 1020 260V96Z" />
<glyph unicode="f" glyph-name="f" horiz-adv-x="711" d="M860 1352Q860 1328 850 1307T822 1269T781 1238T733 1217L530 1407Q515 1384 503 1359T482 1298T470 1213T465 1094V975H688V844H467V150Q467 131 479 117T512 102L637 96V0H43V96L147 102Q166 104 179
117T193 150V844H59V926L190 993Q190 1074 212 1146T279 1286Q309 1336 349 1378T439 1451T544 1499T664 1516Q694 1516 728 1507T792 1478T841 1427T860 1352Z" />
<glyph unicode="g" glyph-name="g" horiz-adv-x="1137" d="M793 -141Q793 -105 771 -79T714 -35T635 -4T547 15T464 26T399 33Q389 18 378 2T358 -33T342 -75T336 -127Q335 -176 355 -218T407 -292T479 -342T561 -360Q602 -360 643 -345T718 -301T772 -232T793
-141ZM709 688Q709 730 700 772T671 848T622 903T555 924Q509 924 477 904T426 849T398 773T389 686Q389 641 398 597T427 518T478 462T551 440Q593 440 622 461T671 518T700 598T709 688ZM938 840Q949 818 958 793Q966 771 972 744T979 684Q979 615 956 563T895
472T806 407T702 366T592 346T489 344Q471 332 457 319T434 292T426 260T434 221Q602 207 720 182T914 120T1023 33T1057 -82Q1057 -141 1035 -193T973 -288T881 -366T767 -424T638 -460T504 -473Q423 -473 345 -455T204 -397T104 -298T66 -156Q66 -92 90 -50T147
18T214 53T270 59Q256 87 250 117T244 168Q244 194 251 217T272 263T307 309T358 358Q331 364 289 383T206 438T136 530T106 666Q106 758 141 825T238 937T382 1002T559 1024Q607 1024 649 1017T728 1001T795 980T852 961H1118V840H938Z" />
<glyph unicode="h" glyph-name="h" horiz-adv-x="1282" d="M713 0V96L778 102Q797 104 810 117T823 150V633Q823 658 818 693T794 759T742 813T651 836Q620 836 587 832T524 822Q491 816 459 809V150Q459 131 472 118T504 102L575 96V0H55V96L139 102Q158 104
171 117T184 150V1329H39V1413L352 1516H459V897Q516 932 578 960Q604 972 633 983T693 1004T755 1018T817 1024Q877 1024 921 1009T997 968T1048 909T1079 839T1094 768T1098 702V150Q1098 131 1111 118T1143 102L1229 96V0H713Z" />
<glyph unicode="i" glyph-name="i" horiz-adv-x="682" d="M66 0V96L160 102Q178 104 191 117T205 150V838H74V922L373 1024H477V150Q477 131 491 118T524 102L623 96V0H66ZM506 1358Q506 1325 494 1296T459 1245T408 1211T346 1198Q313 1198 284 1210T234 1245T201
1296T188 1358Q188 1391 200 1420T234 1470T284 1503T346 1516Q379 1516 408 1504T459 1470T493 1420T506 1358Z" />
<glyph unicode="j" glyph-name="j" horiz-adv-x="664" d="M477 96Q477 -16 450 -121T365 -307Q309 -383 224 -428T20 -473Q-21 -473 -58 -463T-123 -433T-167 -384T-184 -317Q-184 -290 -174 -266T-145 -224T-103 -194T-53 -180L147 -383Q159 -364 168 -338T183
-281T193 -220T200 -158Q205 -88 205 -10V838H59V922L373 1024H477V96ZM498 1358Q498 1325 486 1296T452 1245T402 1211T340 1198Q307 1198 278 1210T227 1245T193 1296T180 1358Q180 1391 192 1420T227 1470T278 1503T340 1516Q373 1516 402 1504T452 1470T485
1420T498 1358Z" />
<glyph unicode="k" glyph-name="k" horiz-adv-x="1212" d="M780 0V84L555 463H459V150Q459 131 471 118T504 102L586 96V0H53V96L139 102Q158 104 171 117T184 150V1329H41V1413L354 1516H459V532H504L778 860Q788 871 784 882T764 895L686 903V999H1112V903L977
887L758 637L1073 106L1194 96V0H780Z" />
<glyph unicode="l" glyph-name="l" horiz-adv-x="682" d="M59 0V96L160 102Q180 104 192 117T205 150V1329H59V1413L373 1516H477V150Q477 130 489 117T522 102L625 96V0H59Z" />
<glyph unicode="m" glyph-name="m" horiz-adv-x="1855" d="M1296 0V96L1360 102Q1378 104 1392 117T1407 150V643Q1407 680 1398 715T1369 777T1314 820T1229 836Q1196 836 1167 831T1114 819Q1088 812 1065 803V150Q1065 131 1078 118T1110 102L1174 96V0H682V96L745
102Q764 104 777 117T791 150V643Q791 680 781 715T750 777T696 820T614 836Q572 836 541 831T489 819Q465 812 449 803V150Q449 131 463 118T496 102L559 96V0H55V96L131 102Q150 104 163 117T176 150V836H45V920L346 1024H449V899Q501 934 557 961Q605 984 664
1004T784 1024Q842 1024 883 1009T952 972T999 926T1032 885Q1092 923 1154 954Q1181 967 1211 979T1272 1002T1335 1018T1397 1024Q1459 1024 1504 1008T1580 964T1631 904T1661 835T1675 768T1679 711V150Q1679 131 1692 118T1724 102L1798 96V0H1296Z" />
<glyph unicode="n" glyph-name="n" horiz-adv-x="1280" d="M702 0V96L778 102Q797 104 810 117T823 150V631Q823 670 814 707T785 772T733 818T655 836Q613 836 577 832T515 822Q484 816 459 809V150Q459 131 473 118T506 102L567 96V0H66V96L139 102Q158 104
171 117T184 150V836H43V920L352 1024H459V899Q512 934 572 961Q623 984 687 1004T817 1024Q905 1024 960 994T1045 913T1085 799T1096 668V150Q1096 131 1110 118T1143 102L1206 96V0H702Z" />
<glyph unicode="o" glyph-name="o" horiz-adv-x="1196" d="M827 496Q827 539 823 586T810 680T783 767T741 839T680 888T598 907Q529 907 485 869T417 772T383 641T373 504Q373 460 376 412T389 318T415 231T456 159T517 109T600 90Q670 90 714 127T783 224T817
355T827 496ZM1133 494Q1133 379 1097 284T990 120T820 13T592 -25Q475 -25 379 11T213 114T105 277T66 496Q66 622 106 720T217 885T388 988T606 1024Q733 1024 831 985T996 876T1098 708T1133 494Z" />
<glyph unicode="p" glyph-name="p" horiz-adv-x="1237" d="M868 498Q868 565 853 627T806 735T726 810T610 838Q583 838 557 833T508 822Q482 815 459 807V111Q479 103 499 98Q516 93 535 90T571 86Q645 86 700 118T793 205T849 336T868 498ZM1171 528Q1171 404
1132 302T1021 128T847 15T618 -25Q587 -25 559 -22T508 -15Q482 -11 459 -4V-299Q459 -319 471 -332T504 -346L612 -352V-449H49V-352L139 -346Q158 -346 171 -333T184 -299V836H49V920L352 1024H459V895Q507 931 562 959Q609 983 667 1003T788 1024Q850 1024
903 1004T998 950T1073 868T1127 765T1160 650T1171 528Z" />
<glyph unicode="q" glyph-name="q" horiz-adv-x="1235" d="M776 895Q766 897 753 899Q742 901 727 902T694 903Q603 903 540 874T438 792T382 669T365 516Q365 432 384 365T439 251T527 179T645 154Q668 154 691 155T733 158Q755 160 776 162V895ZM618 -449V-352L731
-346Q751 -346 763 -333T776 -299V80Q733 50 684 27Q641 7 586 -9T467 -25Q375 -25 301 15T174 123T94 280T66 469Q66 614 115 719T251 891T460 991T727 1024Q779 1024 836 1020T941 1011Q997 1006 1051 999V-299Q1051 -319 1064 -332T1096 -346L1180 -352V-449H618Z"
/>
<glyph unicode="r" glyph-name="r" horiz-adv-x="885" d="M725 676Q718 686 708 700T682 727T644 749T592 758Q563 758 538 752T496 739Q475 731 459 721V147Q459 129 471 115T504 100L635 94V-2H49V94L139 100Q158 102 171 115T184 147V836H35V920L352 1024H459V807Q478
831 510 868T581 939T659 999T735 1024Q753 1024 772 1021T808 1013T840 1001T864 987V676H725Z" />
<glyph unicode="s" glyph-name="s" horiz-adv-x="911" d="M815 686H688L666 850Q646 873 604 887T506 901Q434 901 393 872T352 788Q352 758 369 732T415 683T481 640T559 598Q610 572 662 545T755 485T822 412T848 319Q848 222 811 157T715 51T581 -7T430 -25Q354
-25 289 -17T173 3Q115 15 66 31V342H195Q197 321 201 289T209 227Q213 192 219 154Q221 149 242 140T292 120T353 103T410 96Q462 96 496 110T550 144T578 186T586 227Q586 269 560 299T491 355T397 402T293 451Q250 472 211 497T143 553T96 623T78 713Q78 784
108 841T194 939T324 1002T489 1024Q565 1024 625 1016T728 996Q777 984 815 969V686Z" />
<glyph unicode="t" glyph-name="t" horiz-adv-x="768" d="M760 45Q712 25 658 10Q612 -4 554 -14T432 -25Q364 -25 317 -10T240 36T197 115T184 227V868H49V950L207 1044L317 1262H459V999H743V868H459V311Q459 213 502 173T627 133Q651 133 675 135T718 140Q740
143 760 147V45Z" />
<glyph unicode="u" glyph-name="u" horiz-adv-x="1270" d="M811 0V113Q760 74 705 44Q658 18 601 -3T487 -25Q400 -25 342 -2T248 64T199 169T184 309V838H51V922L352 1024H459V389Q459 351 464 311T488 238T544 184T647 162Q679 162 708 167T761 179Q787 187
811 197V838H682V922L981 1024H1085V150Q1085 131 1099 118T1133 102L1223 96V0H811Z" />
<glyph unicode="v" glyph-name="v" horiz-adv-x="1159" d="M1024 889L672 0H469L141 891L20 903V999H559V903L465 897Q446 895 438 882T436 852L637 285L860 852Q866 867 856 881T829 897L743 903V999H1141V903L1024 889Z" />
<glyph unicode="w" glyph-name="w" horiz-adv-x="1722" d="M1589 889L1315 0H1087L864 727L629 0H406L141 891L20 903V999H545V903L457 897Q440 895 431 882T426 852L586 289L815 999H1040L1260 285L1430 852Q1435 867 1427 881T1401 897L1311 903V999H1704V903L1589
889Z" />
<glyph unicode="x" glyph-name="x" horiz-adv-x="1118" d="M580 0V96L659 104Q675 106 679 116T676 139L514 360L334 139Q325 128 329 117T348 104L420 96V0H20V96L143 113L436 467L133 889L25 903V999H528V903L469 897Q452 895 449 883T455 860L598 662L762 860Q770
871 767 883T748 897L682 903V999H1063V903L948 889L676 553L991 113L1100 96V0H580Z" />
<glyph unicode="y" glyph-name="y" horiz-adv-x="1159" d="M1032 889L678 20Q659 -26 636 -80T585 -188T522 -293T446 -383Q403 -425 353 -449T242 -473Q212 -473 180 -462T121 -429T77 -377T61 -309Q61 -281 71 -258T98 -215T136 -182T180 -158L354 -291Q382
-265 406 -229T450 -155T484 -80T506 -18L141 891L20 903V999H559V903L465 897Q446 895 437 882T434 852L645 326L862 852Q868 867 858 881T831 897L741 903V999H1141V903L1032 889Z" />
<glyph unicode="z" glyph-name="z" horiz-adv-x="1006" d="M66 0V133L590 883H281Q265 883 254 869T242 840L227 682H82V999H911V885L375 121H727Q734 121 741 126T754 138T765 153T772 170L799 344H940V0H66Z" />
<glyph unicode="{" glyph-name="braceleft" horiz-adv-x="1014" d="M864 -250H824Q797 -250 761 -249T682 -243T599 -229T521 -204T459 -166Q412 -125 391 -69T364 48T358 173T359 295T349 401T309 479Q279 509 240 521T166 538Q126 542 84 537V659Q126 653 166
657Q201 660 240 672T309 715Q339 745 348 793T359 900T359 1022T363 1147T391 1265T459 1362Q484 1385 521 1400T599 1424T682 1438T760 1444T824 1446H864V1333Q827 1333 791 1328Q760 1323 727 1312T670 1278Q639 1248 628 1204T615 1107T614 997T609 885T585
778T524 688Q492 657 457 639T392 612T339 600Q322 598 313 598Q322 597 339 595Q362 592 392 583T457 555T524 506Q566 466 584 416T609 310T614 198T615 89T628 -7T670 -82Q693 -105 726 -116T791 -132Q827 -137 864 -137V-250Z" />
<glyph unicode="|" glyph-name="bar" horiz-adv-x="815" d="M320 -528V1630H495V-528H320Z" />
<glyph unicode="}" glyph-name="braceright" horiz-adv-x="1014" d="M930 537Q887 542 847 538Q812 534 773 522T705 479Q675 448 665 400T654 294T653 173T649 48T622 -69T555 -166Q529 -189 493 -204T415 -228T332 -242T254 -248T189 -250H150V-137Q187 -137
223 -132Q254 -127 287 -116T344 -82Q375 -52 386 -8T399 88T400 196T404 308T428 415T489 506Q521 536 555 554T619 581T673 594T705 598Q698 598 676 600T623 611T557 638T489 688Q447 728 429 779T405 885T400 998T399 1107T386 1204T344 1278Q320 1301 287
1312T223 1328Q187 1333 150 1333V1446H189Q217 1446 253 1445T332 1439T415 1425T493 1400T555 1362Q601 1320 621 1265T648 1148T654 1022T653 900T665 794T705 715Q734 685 773 673T847 657Q887 653 930 659V537Z" />
<glyph unicode="~" glyph-name="asciitilde" horiz-adv-x="1706" d="M1530 614Q1468 570 1415 540T1314 492T1222 467T1135 459Q1060 459 990 480T850 527T709 574T563 596Q492 596 398 553T176 412V606Q292 694 392 729T575 764Q633 764 688 752T796 721T903
683T1010 647Q1042 638 1074 633T1137 627Q1170 627 1208 635T1293 663T1399 719T1530 809V614Z" />
<glyph unicode="&#xa0;" glyph-name="uni00A0" horiz-adv-x="600" />
<glyph unicode="&#xa1;" glyph-name="exclamdown" horiz-adv-x="696" d="M514 141Q514 99 501 68T465 16T411 -15T346 -25Q312 -25 282 -15T230 15T194 67T180 141L291 956H401L514 141ZM512 1239Q512 1199 497 1169T458 1119T405 1088T346 1077Q317 1077 288
1088T236 1120T197 1171T182 1239Q182 1274 195 1305T230 1358T283 1394T346 1407Q371 1407 400 1398T454 1369T495 1316T512 1239Z" />
<glyph unicode="&#xa2;" glyph-name="cent" horiz-adv-x="1202" d="M659 928Q618 919 575 893T497 817T440 694T418 516Q418 434 438 367T492 251T569 170T659 127V928ZM1067 55Q1060 48 1039 41T990 28T929 17T866 8T811 2T776 0V-211H659V2Q552 2 457 41T291
150T177 314T135 516Q135 633 176 730T289 899T456 1009T659 1049V1260H776V1053Q810 1053 849 1048T929 1035T1005 1015T1067 991V696H940L918 844V891Q911 896 896 903T860 916T818 927T776 932V123Q811 123 837 128T881 139Q901 146 915 156V197L940 360H1067V55Z"
/>
<glyph unicode="&#xa3;" glyph-name="sterling" horiz-adv-x="1202" d="M86 0V156Q96 160 116 164T160 178T209 209T255 269T288 368T299 518L297 608H154V739H295L291 775Q289 791 288 808T287 842Q287 962 314 1065T399 1245T547 1364T762 1407Q816 1407 878
1393T992 1349T1079 1273T1114 1161Q1114 1126 1100 1099T1063 1054T1009 1027T948 1018Q934 1018 920 1020T891 1027Q875 1031 860 1036V1286Q855 1288 847 1290Q840 1292 828 1293T799 1294Q737 1294 695 1270T627 1208T586 1122T566 1024T560 929T559 850Q559
825 559 805T561 770Q562 752 563 739H934V608H567Q567 554 560 502T529 399T462 299T346 201Q381 205 409 209Q433 212 454 214T481 217H1114V0H86Z" />
<glyph unicode="&#xa4;" glyph-name="currency" horiz-adv-x="1249" d="M950 877Q950 941 926 998T859 1098T760 1166T639 1192Q572 1192 514 1168T413 1100T344 999T319 874Q319 808 344 751T412 651T514 584T639 559Q704 559 761 584T860 653T926 754T950 877ZM1114
328L903 539Q847 491 779 467T639 442Q562 442 493 465T367 539L156 328L82 401L293 612Q248 668 226 735T203 874Q203 910 208 946T225 1018T254 1085T297 1145L82 1360L156 1434L371 1219Q426 1264 496 1286T639 1309Q710 1309 777 1286T897 1217L1114 1434L1188
1360L975 1147Q1018 1093 1042 1021T1067 877Q1067 804 1045 736T977 612L1188 401L1114 328Z" />
<glyph unicode="&#xa5;" glyph-name="yen" horiz-adv-x="1300" d="M1169 1247L967 883H1233V776H903L797 584H1233V479H803V162Q803 151 815 136T856 117L977 106V0H342V106L465 117Q493 120 504 135T516 162V479H78V584H492L393 776H78V883H328L139 1249L14 1270V1374H578V1270L483
1262Q468 1260 459 1246T457 1217L713 725L975 1206Q978 1211 979 1217T979 1230T969 1242T948 1251L848 1272V1374H1286V1270L1169 1247Z" />
<glyph unicode="&#xa6;" glyph-name="brokenbar" horiz-adv-x="707" d="M301 -406V414H406V-406H301ZM301 688V1507H406V688H301Z" />
<glyph unicode="&#xa7;" glyph-name="section" horiz-adv-x="1024" d="M750 557Q750 603 730 640T679 707T611 759T539 798T477 826T438 846Q436 845 423 841T391 827T351 804T311 768T280 717T268 651Q268 608 283 574T323 512T381 462T449 420T519 385T584 354Q579
351 589 356T617 373T659 403T702 444T736 495T750 557ZM938 627Q938 565 921 517T877 433T820 371T761 329T714 304T690 293Q707 282 741 263T810 213T871 136T897 27Q897 -62 859 -123T759 -222T622 -276T471 -293Q397 -293 336 -283T229 -259Q176 -244 133 -225V59H258L285
-131Q305 -143 331 -152T383 -167T433 -175T475 -178Q514 -178 549 -167T610 -135T652 -85T668 -20Q668 25 643 58T577 120T484 174T377 226T270 285T177 360T111 457T86 586Q86 642 101 686T139 764T190 823T245 865T294 892T326 907Q306 919 272 939T206 990T151
1067T127 1178Q127 1254 161 1309T253 1402T386 1457T545 1475Q618 1475 678 1467T782 1449Q833 1438 874 1423V1141H762L739 1309Q717 1324 689 1336Q665 1347 630 1355T551 1364Q516 1364 483 1354T424 1324T381 1275T365 1206Q365 1166 389 1135T454 1076T546
1025T651 973T756 915T848 842T913 749T938 627Z" />
<glyph unicode="&#xa8;" glyph-name="dieresis" horiz-adv-x="713" d="M283 1339Q283 1310 272 1285T242 1240T196 1209T141 1198Q112 1198 86 1209T41 1239T11 1284T0 1339Q0 1368 11 1394T41 1439T86 1470T141 1481Q170 1481 196 1470T241 1440T272 1394T283
1339ZM713 1339Q713 1310 702 1285T672 1240T626 1209T571 1198Q542 1198 517 1209T472 1239T441 1284T430 1339Q430 1368 441 1394T471 1439T516 1470T571 1481Q600 1481 626 1470T671 1440T702 1394T713 1339Z" />
<glyph unicode="&#xa9;" glyph-name="copyright" horiz-adv-x="1714" d="M1552 717Q1552 814 1527 903T1457 1070T1349 1212T1208 1321T1043 1392T858 1417Q763 1417 675 1393T510 1323T369 1213T260 1071T189 903T164 713Q164 618 188 529T258 363T366 222T506
112T671 41T856 16Q952 16 1041 41T1207 113T1348 223T1457 365T1527 532T1552 717ZM1651 717Q1651 607 1623 505T1542 315T1418 153T1257 29T1066 -51T854 -80Q746 -80 646 -52T458 28T298 153T175 314T95 505T66 717Q66 826 94 928T174 1118T297 1279T458 1404T647
1484T858 1513Q966 1513 1067 1485T1256 1405T1417 1280T1542 1119T1622 929T1651 717ZM1204 285Q1167 270 1121 259Q1082 249 1028 241T907 233Q799 233 708 265T550 360T447 513T410 717Q410 816 444 903T544 1056T703 1160T915 1198Q984 1198 1038 1190T1129
1170Q1172 1158 1204 1143V895H1090L1061 1059Q1049 1069 1032 1077Q1018 1084 996 1090T944 1096Q863 1096 806 1061T712 971T660 848T643 713Q643 632 663 563T721 444T814 365T938 336Q966 336 988 340T1027 350Q1045 356 1061 365L1090 541H1204V285Z" />
<glyph unicode="&#xaa;" glyph-name="ordfeminine" horiz-adv-x="735" d="M449 1102Q384 1090 342 1077T275 1048T241 1011T231 963Q231 924 257 898T326 872Q347 872 369 875T409 884Q430 889 449 897V1102ZM98 616V688H711V616H98ZM465 784L449 846Q416 825
377 808Q344 794 302 782T215 770Q180 770 149 781T94 812T57 861T43 928Q43 955 47 978T67 1022T109 1061T182 1097T293 1131T451 1167V1214Q452 1232 448 1252T430 1289T391 1318T326 1329Q312 1329 302 1329T284 1327Q275 1326 268 1325V1208H131Q114 1207 101
1211Q90 1215 81 1224T72 1253Q72 1287 98 1314T167 1360T263 1389T369 1399Q426 1399 473 1391T555 1361T608 1297T627 1190V874Q627 862 635 854T655 846L715 842V784H465Z" />
<glyph unicode="&#xab;" glyph-name="guillemotleft" horiz-adv-x="920" d="M78 406V580L436 879V696L221 492L436 285V104L78 406ZM477 406V580L838 879V696L621 492L838 287V104L477 406Z" />
<glyph unicode="&#xac;" glyph-name="logicalnot" horiz-adv-x="1270" d="M1065 387V737H82V860H1188V387H1065Z" />
<glyph unicode="&#xad;" glyph-name="uni00AD" horiz-adv-x="672" d="M68 385V602H604V385H68Z" />
<glyph unicode="&#xae;" glyph-name="registered" horiz-adv-x="1714" d="M1651 717Q1651 607 1623 505T1542 315T1418 153T1257 29T1066 -51T854 -80Q746 -80 646 -52T458 28T298 153T175 314T95 505T66 717Q66 826 94 928T174 1118T297 1279T458 1404T647 1484T858
1513Q966 1513 1067 1485T1256 1405T1417 1280T1542 1119T1622 929T1651 717ZM1552 717Q1552 814 1527 903T1457 1070T1349 1212T1208 1321T1043 1392T858 1417Q763 1417 675 1393T510 1323T369 1213T260 1071T189 903T164 713Q164 618 188 529T258 363T366 222T506
112T671 41T856 16Q952 16 1041 41T1207 113T1348 223T1457 365T1527 532T1552 717ZM1337 291Q1291 285 1263 284T1210 283Q1143 283 1099 300T1026 345T979 409T947 482T920 556T885 620T832 665T750 682Q742 682 738 683T723 684V395Q723 381 732 373T754 365L829
358V291H424V358L496 365Q507 365 516 373T526 395V1083Q526 1096 517 1103T496 1112L424 1120V1188H879Q903 1188 934 1185T999 1172T1063 1148T1119 1107T1159 1047T1174 965Q1174 897 1147 854T1082 784T1004 747T936 731Q992 720 1027 697T1085 643T1119 578T1142
509T1163 445T1196 394T1250 362T1337 358V291ZM969 918Q969 1003 917 1044T766 1085H723V741Q740 739 751 739H768Q799 739 834 745T899 771T949 826T969 918Z" />
<glyph unicode="&#xaf;" glyph-name="overscore" horiz-adv-x="696" d="M0 1200V1365H696V1200H0Z" />
<glyph unicode="0;" glyph-name="degree" horiz-adv-x="655" d="M471 1249Q471 1279 460 1305T430 1350T384 1381T328 1393Q298 1393 272 1382T226 1351T195 1305T184 1249Q184 1219 195 1193T225 1148T271 1117T328 1106Q358 1106 384 1117T429 1147T460
1193T471 1249ZM553 1249Q553 1202 536 1161T488 1090T416 1042T328 1024Q281 1024 240 1041T168 1089T120 1161T102 1249Q102 1296 119 1337T168 1409T240 1457T328 1475Q375 1475 416 1458T487 1409T535 1337T553 1249Z" />
<glyph unicode="1;" glyph-name="plusminus" horiz-adv-x="2048" d="M410 0V127H1638V0H410ZM1087 733V365H961V733H410V860H961V1229H1087V860H1638V733H1087Z" />
<glyph unicode="2;" glyph-name="twosuperior" horiz-adv-x="780" d="M57 784V887Q84 907 127 936T219 1001T319 1080T409 1169T474 1268T500 1374Q500 1410 488 1441T455 1496T403 1532T336 1546Q322 1546 313 1545T295 1541T278 1536T258 1530V1364Q243
1357 228 1352Q215 1347 199 1344T168 1341Q118 1341 93 1365T68 1432Q68 1470 84 1499T126 1551T187 1587T257 1611T328 1624T393 1628Q456 1628 511 1611T606 1562T670 1485T694 1384Q694 1318 659 1260T563 1145T417 1034T233 918H612L637 1024H723V784H57Z"
/>
<glyph unicode="3;" glyph-name="threesuperior" horiz-adv-x="780" d="M723 1020Q723 960 691 913T606 832T484 782T340 764Q275 764 223 778T133 815T77 867T57 928Q57 953 66 969T91 995T123 1008T156 1012Q173 1012 187 1008T213 999L256 860Q278 855
302 848T352 840Q386 840 418 853T474 891T513 946T528 1014Q528 1043 516 1070T481 1117T423 1150T342 1163Q326 1163 310 1162T280 1160Q264 1158 248 1157V1247H285Q322 1247 359 1254T427 1278T477 1325T496 1399Q496 1428 483 1454T448 1501T394 1534T326
1546Q316 1546 305 1544T282 1539Q270 1535 256 1532V1380Q237 1369 218 1367T182 1364Q161 1364 143 1369T110 1384T88 1411T80 1450Q80 1489 104 1521T171 1578T269 1615T387 1628Q441 1628 495 1615T593 1575T663 1507T690 1411Q690 1373 677 1344T642 1294T595
1259T545 1237T499 1224Q481 1220 470 1219Q480 1219 500 1217Q523 1215 551 1208T610 1187T665 1151T707 1097T723 1020Z" />
<glyph unicode="4;" glyph-name="acute" horiz-adv-x="768" d="M768 1395Q768 1385 764 1373T752 1348T735 1326T715 1309L383 1128H240L520 1438Q538 1457 552 1469T581 1489T612 1500T649 1503Q682 1503 704 1493T741 1468T762 1433T768 1395Z" />
<glyph unicode="5;" glyph-name="mu" horiz-adv-x="1192" d="M1202 242Q1193 107 1134 41T952 -25Q925 -25 898 -14T845 19T799 70T764 139Q733 93 703 62T639 11T567 -16T483 -25Q468 -25 446 -16T401 5T358 31T326 55V10Q326 -46 336 -96T359 -190T382 -269T393
-328Q393 -355 379 -378T344 -419T298 -445T252 -455Q233 -455 210 -446T167 -421T133 -382T119 -332Q119 -300 124 -280T136 -241T151 -198T167 -132T179 -27T184 135V999H442V334Q442 287 447 257T459 211Q466 195 476 180T499 152T526 133T555 125Q583 125 606
133T650 159T695 200T745 256V999H1008V221Q1008 205 1010 186T1018 151T1032 124T1053 113Q1068 113 1080 118T1102 138T1120 178T1137 242H1202Z" />
<glyph unicode="6;" glyph-name="paragraph" horiz-adv-x="1065" d="M883 -162H733V1245H606V551Q485 551 384 569T209 633T96 758T55 961Q55 1078 90 1157T190 1284T349 1353T559 1374H1010V1257L883 1239V-162Z" />
<glyph unicode="7;" glyph-name="middot" horiz-adv-x="385" d="M313 696Q313 671 304 649T278 611T240 585T193 575Q167 575 145 584T107 610T82 649T72 696Q72 721 81 743T107 782T145 807T193 817Q218 817 240 808T278 782T303 744T313 696Z" />
<glyph unicode="8;" glyph-name="cedilla" horiz-adv-x="504" d="M504 -268Q504 -318 485 -356T433 -420T353 -459T252 -473Q220 -473 190 -470T137 -462Q110 -458 86 -451V-348Q109 -353 132 -357Q152 -360 174 -362T215 -365Q235 -365 256 -362T295 -352T324
-330T336 -295Q336 -277 329 -264T309 -242T280 -229T246 -225Q240 -225 233 -225T218 -227Q210 -228 201 -229V2H303V-111Q306 -112 310 -112Q315 -113 332 -113Q367 -113 398 -122T453 -150T490 -198T504 -268Z" />
<glyph unicode="9;" glyph-name="onesuperior" horiz-adv-x="780" d="M154 784V848L268 852Q281 852 289 860T297 879V1493L98 1466V1532L385 1628H483V879Q483 868 492 860T512 852L618 848V784H154Z" />
<glyph unicode="a;" glyph-name="ordmasculine" horiz-adv-x="778" d="M539 1081Q539 1120 533 1164T510 1244T464 1305T389 1329Q344 1329 315 1306T270 1247T248 1168T242 1085Q242 1046 247 1003T269 923T315 862T391 838Q436 838 465 861T510 919T533
997T539 1081ZM84 612V684H696V612H84ZM735 1079Q735 1011 712 954T643 856T533 793T385 770Q309 770 246 791T138 853T68 950T43 1081Q43 1156 69 1215T141 1315T252 1377T395 1399Q477 1399 540 1376T647 1310T712 1209T735 1079Z" />
<glyph unicode="b;" glyph-name="guillemotright" horiz-adv-x="920" d="M82 104V287L299 492L82 696V879L442 578V403L82 104ZM483 104V287L698 492L483 698V879L842 578V403L483 104Z" />
<glyph unicode="c;" glyph-name="onequarter" horiz-adv-x="1858" d="M1450 653L1167 319H1450V653ZM143 604V668L258 672Q270 672 278 679T287 698V1309L88 1284V1348L377 1440H475V698Q475 686 483 679T504 672L608 668V604H143ZM567 0H418L1323 1423H1473L567
0ZM1620 219V-37H1450V219H1038V324L1477 831H1620V319H1769V219H1620Z" />
<glyph unicode="d;" glyph-name="onehalf" horiz-adv-x="1858" d="M150 604V668L264 672Q277 672 285 679T293 698V1309L94 1284V1348L383 1440H479V698Q479 686 488 679T510 672L614 668V604H150ZM522 0H373L1278 1423H1427L522 0ZM1114 0V102Q1141 122 1183
151T1272 217T1367 295T1453 385T1516 484T1540 590Q1540 626 1530 656T1499 709T1450 745T1382 758Q1368 758 1360 757T1345 755T1331 751T1313 745V580Q1299 573 1284 568Q1271 563 1255 560T1223 557Q1173 557 1148 582T1122 647Q1122 686 1137 715T1179 766T1238
802T1307 824T1378 836T1442 840Q1505 840 1559 824T1653 777T1716 702T1739 602Q1739 536 1706 477T1613 361T1470 248T1288 131H1655L1677 242H1765V0H1114Z" />
<glyph unicode="e;" glyph-name="threequarters" horiz-adv-x="1858" d="M1636 219V-37H1466V219H1057V324L1493 831H1636V319H1786V219H1636ZM723 842Q723 782 692 736T610 657T490 609T348 592Q283 592 232 605T146 641T93 691T74 750Q74 776 83 792T106
819T138 832T170 836Q189 836 202 832T227 823L270 684Q292 678 312 673T360 668Q395 668 425 680T479 715T515 767T528 834Q528 863 517 890T484 937T428 970T348 983Q332 983 317 982T290 980Q276 978 262 977V1069Q273 1067 281 1068T299 1069Q336 1069 371
1076T434 1101T479 1148T496 1221Q496 1250 484 1275T451 1320T399 1351T332 1362Q322 1362 312 1361T292 1357Q281 1354 270 1352V1200Q252 1189 234 1187T199 1184Q157 1184 126 1205T94 1272Q94 1310 117 1342T180 1396T275 1431T393 1444Q448 1444 501 1432T596
1395T664 1330T690 1235Q690 1196 676 1167T640 1116T591 1080T539 1056T492 1043Q474 1039 465 1038Q474 1038 494 1036Q517 1035 546 1029T606 1009T663 974T706 920T723 842ZM584 0H434L1339 1423H1489L584 0ZM1466 653L1184 319H1466V653Z" />
<glyph unicode="f;" glyph-name="questiondown" horiz-adv-x="1069" d="M979 219Q979 152 943 106T850 30T726 -12T596 -25Q497 -25 412 2T265 81T167 204T131 365Q131 430 150 483T200 580T271 656T353 714Q451 772 575 803V977H715V705Q631 683 566 638Q538
619 512 593T464 533T431 455T418 360Q418 303 434 256T484 174T568 120T686 100L778 346Q779 347 783 348Q786 349 790 349T803 350Q823 350 853 348T911 332T959 293T979 219ZM801 1241Q801 1207 789 1178T755 1126T705 1090T643 1077Q606 1077 576 1091T523
1128T489 1183T477 1249Q477 1283 490 1312T527 1362T580 1395T645 1407Q678 1407 706 1394T756 1357T789 1304T801 1241Z" />
<glyph unicode="0;" glyph-name="Agrave" horiz-adv-x="1405" d="M631 1092L459 600H807L631 1092ZM829 0V104L950 119Q960 121 967 132T969 154L858 479H420L307 162Q301 146 313 133T336 119L451 104V0H10V104L125 121L584 1407H817L1272 158Q1280 139 1287
132T1317 119L1395 104V0H829ZM753 1528L421 1709Q410 1715 401 1725T385 1748T374 1772T370 1795Q370 1813 376 1832T395 1867T431 1893T487 1903Q508 1903 524 1900T554 1890T583 1870T616 1838L896 1528H753Z" />
<glyph unicode="1;" glyph-name="Aacute" horiz-adv-x="1405" d="M631 1092L459 600H807L631 1092ZM829 0V104L950 119Q960 121 967 132T969 154L858 479H420L307 162Q301 146 313 133T336 119L451 104V0H10V104L125 121L584 1407H817L1272 158Q1280 139 1287
132T1317 119L1395 104V0H829ZM1025 1795Q1025 1785 1021 1773T1009 1748T992 1726T972 1709L640 1528H497L777 1838Q795 1857 809 1869T838 1889T869 1900T906 1903Q939 1903 961 1893T998 1868T1019 1833T1025 1795Z" />
<glyph unicode="2;" glyph-name="Acircumflex" horiz-adv-x="1405" d="M631 1092L459 600H807L631 1092ZM829 0V104L950 119Q960 121 967 132T969 154L858 479H420L307 162Q301 146 313 133T336 119L451 104V0H10V104L125 121L584 1407H817L1272 158Q1280
139 1287 132T1317 119L1395 104V0H829ZM873 1528L695 1723L517 1528H347L574 1879H816L1043 1528H873Z" />
<glyph unicode="3;" glyph-name="Atilde" horiz-adv-x="1405" d="M631 1092L459 600H807L631 1092ZM829 0V104L950 119Q960 121 967 132T969 154L858 479H420L307 162Q301 146 313 133T336 119L451 104V0H10V104L125 121L584 1407H817L1272 158Q1280 139 1287
132T1317 119L1395 104V0H829ZM1055 1852Q1042 1799 1021 1753T970 1673T900 1618T807 1598Q767 1598 737 1613T678 1647T615 1680T537 1696Q503 1696 478 1668T447 1598H336Q349 1651 370 1697T421 1777T491 1832T582 1852Q622 1852 653 1837T713 1804T776 1771T854
1756Q870 1756 885 1763T913 1784T933 1814T944 1852H1055Z" />
<glyph unicode="4;" glyph-name="Adieresis" horiz-adv-x="1405" d="M631 1092L459 600H807L631 1092ZM829 0V104L950 119Q960 121 967 132T969 154L858 479H420L307 162Q301 146 313 133T336 119L451 104V0H10V104L125 121L584 1407H817L1272 158Q1280 139
1287 132T1317 119L1395 104V0H829ZM622 1739Q622 1710 611 1685T581 1640T535 1609T480 1598Q451 1598 425 1609T380 1639T350 1684T339 1739Q339 1768 350 1794T380 1839T425 1870T480 1881Q509 1881 535 1870T580 1840T611 1794T622 1739ZM1052 1739Q1052 1710
1041 1685T1011 1640T965 1609T910 1598Q881 1598 856 1609T811 1639T780 1684T769 1739Q769 1768 780 1794T810 1839T855 1870T910 1881Q939 1881 965 1870T1010 1840T1041 1794T1052 1739Z" />
<glyph unicode="5;" glyph-name="Aring" horiz-adv-x="1405" d="M631 1092L459 600H807L631 1092ZM829 0V104L950 119Q960 121 967 132T969 154L858 479H420L307 162Q301 146 313 133T336 119L451 104V0H10V104L125 121L584 1407H817L1272 158Q1280 139 1287
132T1317 119L1395 104V0H829ZM823 1786Q823 1813 813 1836T786 1878T745 1906T694 1916Q668 1916 645 1906T604 1878T576 1837T565 1786Q565 1759 575 1736T603 1695T644 1667T694 1657Q721 1657 744 1667T785 1694T813 1735T823 1786ZM954 1786Q954 1732 934
1685T878 1603T795 1548T694 1528Q641 1528 594 1548T512 1603T457 1685T436 1786Q436 1840 456 1887T512 1969T594 2025T694 2045Q748 2045 795 2025T877 1970T933 1887T954 1786Z" />
<glyph unicode="6;" glyph-name="AE" horiz-adv-x="1985" d="M981 1257L604 627H981V1257ZM821 0V104L928 113Q949 115 965 129T981 158V500H528L326 158Q316 141 321 129T340 115L457 104V0H10V104L135 119L786 1217Q791 1224 790 1231T784 1245T772 1255T758
1260L657 1270V1374H1858V1047H1710L1681 1217Q1678 1232 1670 1243T1647 1255H1274V774H1501Q1515 774 1525 787T1538 811L1556 950H1683V469H1556L1538 610Q1536 621 1525 633T1501 645H1274V123H1706Q1718 123 1728 137T1741 162L1774 375H1923V0H821Z" />
<glyph unicode="7;" glyph-name="Ccedilla" horiz-adv-x="1303" d="M996 -268Q996 -318 977 -356T925 -420T845 -459T744 -473Q712 -473 682 -470T629 -462Q602 -458 578 -451V-348Q601 -353 624 -357Q644 -360 666 -362T707 -365Q727 -365 748 -362T787 -352T816
-330T828 -295Q828 -277 821 -264T801 -242T772 -229T738 -225Q732 -225 725 -225T710 -227Q702 -228 693 -229V-27Q643 -21 596 -9Q502 15 422 60T278 169T169 313T100 488T76 688Q76 848 131 980T284 1207T513 1354T797 1407Q855 1407 903 1402T999 1387T1102
1360T1229 1321V973H1069L1024 1202Q1024 1207 1016 1218T997 1235Q989 1239 973 1244T936 1255T893 1264T852 1268Q747 1268 663 1227T519 1109T429 925T397 684Q397 612 408 541T442 405T503 285T593 188T713 124T868 100Q906 100 938 109T987 127Q995 130 1007
143T1022 166L1067 408H1229V49Q1210 41 1170 28T1072 1T945 -23T795 -33V-111Q798 -112 802 -112Q807 -113 824 -113Q859 -113 890 -122T945 -150T982 -198T996 -268Z" />
<glyph unicode="8;" glyph-name="Egrave" horiz-adv-x="1225" d="M53 0V104L166 115Q184 117 198 128T213 160V1214Q213 1234 199 1246T166 1260L53 1270V1374H1098V1047H950L918 1217Q914 1232 905 1243T881 1255H500V774H743Q757 774 766 787T778 811L797
950H924V469H797L778 608Q776 619 767 632T743 645H500V123H946Q959 123 970 137T983 162L1014 375H1163V0H53ZM666 1528L334 1709Q323 1715 314 1725T298 1748T287 1772T283 1795Q283 1813 289 1832T308 1867T344 1893T400 1903Q421 1903 437 1900T467 1890T496
1870T529 1838L809 1528H666Z" />
<glyph unicode="9;" glyph-name="Eacute" horiz-adv-x="1225" d="M53 0V104L166 115Q184 117 198 128T213 160V1214Q213 1234 199 1246T166 1260L53 1270V1374H1098V1047H950L918 1217Q914 1232 905 1243T881 1255H500V774H743Q757 774 766 787T778 811L797
950H924V469H797L778 608Q776 619 767 632T743 645H500V123H946Q959 123 970 137T983 162L1014 375H1163V0H53ZM938 1795Q938 1785 934 1773T922 1748T905 1726T885 1709L553 1528H410L690 1838Q708 1857 722 1869T751 1889T782 1900T819 1903Q852 1903 874 1893T911
1868T932 1833T938 1795Z" />
<glyph unicode="a;" glyph-name="Ecircumflex" horiz-adv-x="1225" d="M53 0V104L166 115Q184 117 198 128T213 160V1214Q213 1234 199 1246T166 1260L53 1270V1374H1098V1047H950L918 1217Q914 1232 905 1243T881 1255H500V774H743Q757 774 766 787T778 811L797
950H924V469H797L778 608Q776 619 767 632T743 645H500V123H946Q959 123 970 137T983 162L1014 375H1163V0H53ZM786 1528L608 1723L430 1528H260L487 1879H729L956 1528H786Z" />
<glyph unicode="b;" glyph-name="Edieresis" horiz-adv-x="1225" d="M53 0V104L166 115Q184 117 198 128T213 160V1214Q213 1234 199 1246T166 1260L53 1270V1374H1098V1047H950L918 1217Q914 1232 905 1243T881 1255H500V774H743Q757 774 766 787T778 811L797
950H924V469H797L778 608Q776 619 767 632T743 645H500V123H946Q959 123 970 137T983 162L1014 375H1163V0H53ZM535 1739Q535 1710 524 1685T494 1640T448 1609T393 1598Q364 1598 338 1609T293 1639T263 1684T252 1739Q252 1768 263 1794T293 1839T338 1870T393
1881Q422 1881 448 1870T493 1840T524 1794T535 1739ZM965 1739Q965 1710 954 1685T924 1640T878 1609T823 1598Q794 1598 769 1609T724 1639T693 1684T682 1739Q682 1768 693 1794T723 1839T768 1870T823 1881Q852 1881 878 1870T923 1840T954 1794T965 1739Z"
/>
<glyph unicode="c;" glyph-name="Igrave" horiz-adv-x="735" d="M47 0V104L174 115Q193 117 206 128T219 160V1214Q219 1234 206 1246T174 1260L47 1270V1374H686V1270L559 1260Q542 1258 527 1246T512 1214V160Q512 140 527 129T559 115L686 104V0H47ZM424
1528L92 1709Q81 1715 72 1725T56 1748T45 1772T41 1795Q41 1813 47 1832T66 1867T102 1893T158 1903Q179 1903 195 1900T225 1890T254 1870T287 1838L567 1528H424Z" />
<glyph unicode="d;" glyph-name="Iacute" horiz-adv-x="735" d="M47 0V104L174 115Q193 117 206 128T219 160V1214Q219 1234 206 1246T174 1260L47 1270V1374H686V1270L559 1260Q542 1258 527 1246T512 1214V160Q512 140 527 129T559 115L686 104V0H47ZM697
1795Q697 1785 693 1773T681 1748T664 1726T644 1709L312 1528H169L449 1838Q467 1857 481 1869T510 1889T541 1900T578 1903Q611 1903 633 1893T670 1868T691 1833T697 1795Z" />
<glyph unicode="e;" glyph-name="Icircumflex" horiz-adv-x="735" d="M47 0V104L174 115Q193 117 206 128T219 160V1214Q219 1234 206 1246T174 1260L47 1270V1374H686V1270L559 1260Q542 1258 527 1246T512 1214V160Q512 140 527 129T559 115L686 104V0H47ZM544
1528L366 1723L188 1528H18L245 1879H487L714 1528H544Z" />
<glyph unicode="f;" glyph-name="Idieresis" horiz-adv-x="735" d="M47 0V104L174 115Q193 117 206 128T219 160V1214Q219 1234 206 1246T174 1260L47 1270V1374H686V1270L559 1260Q542 1258 527 1246T512 1214V160Q512 140 527 129T559 115L686 104V0H47ZM293
1739Q293 1710 282 1685T252 1640T206 1609T151 1598Q122 1598 96 1609T51 1639T21 1684T10 1739Q10 1768 21 1794T51 1839T96 1870T151 1881Q180 1881 206 1870T251 1840T282 1794T293 1739ZM723 1739Q723 1710 712 1685T682 1640T636 1609T581 1598Q552 1598
527 1609T482 1639T451 1684T440 1739Q440 1768 451 1794T481 1839T526 1870T581 1881Q610 1881 636 1870T681 1840T712 1794T723 1739Z" />
<glyph unicode="&#xd0;" glyph-name="Eth" horiz-adv-x="1483" d="M29 786H213V1214Q213 1234 199 1246T166 1260L53 1270V1374H680Q855 1374 990 1325T1218 1188T1359 976T1407 702Q1407 526 1357 395T1213 175T987 44T692 0H53V104L166 115Q184 117 198 128T213
160V653H29V786ZM1077 680Q1077 798 1059 886T1010 1038T935 1144T843 1210T741 1245T635 1255H506V786H812V653H506V121L676 125Q720 126 767 137T858 173T942 239T1012 342T1059 487T1077 680Z" />
<glyph unicode="&#xd1;" glyph-name="Ntilde" horiz-adv-x="1524" d="M1354 1260Q1337 1258 1323 1246T1309 1214V0H1059L369 1083V160Q369 140 383 129T414 115L528 104V0H55V104L168 115Q187 117 200 128T213 160V1214Q213 1234 200 1246T168 1260L57 1270V1374H563V1319L1153
395V1214Q1153 1234 1139 1246T1106 1260L989 1270V1374H1464V1270L1354 1260ZM1119 1852Q1106 1799 1085 1753T1034 1673T964 1618T871 1598Q831 1598 801 1613T742 1647T679 1680T601 1696Q567 1696 542 1668T511 1598H400Q413 1651 434 1697T485 1777T555 1832T646
1852Q686 1852 717 1837T777 1804T840 1771T918 1756Q934 1756 949 1763T977 1784T997 1814T1008 1852H1119Z" />
<glyph unicode="&#xd2;" glyph-name="Ograve" horiz-adv-x="1548" d="M1145 672Q1145 792 1123 900T1055 1091T943 1221T786 1270Q715 1270 659 1246T561 1181T488 1083T439 963T412 829T403 690Q403 617 412 545T441 407T490 284T560 186T651 120T766 96Q834
96 889 120T986 187T1058 285T1107 405T1136 537T1145 672ZM1475 680Q1475 533 1426 404T1285 177T1067 24T786 -33Q633 -33 503 15T278 157T130 386T76 696Q76 847 123 977T258 1203T475 1352T768 1407Q874 1407 968 1381T1140 1307T1281 1193T1386 1045T1452
872T1475 680ZM833 1528L501 1709Q490 1715 481 1725T465 1748T454 1772T450 1795Q450 1813 456 1832T475 1867T511 1893T567 1903Q588 1903 604 1900T634 1890T663 1870T696 1838L976 1528H833Z" />
<glyph unicode="&#xd3;" glyph-name="Oacute" horiz-adv-x="1548" d="M1145 672Q1145 792 1123 900T1055 1091T943 1221T786 1270Q715 1270 659 1246T561 1181T488 1083T439 963T412 829T403 690Q403 617 412 545T441 407T490 284T560 186T651 120T766 96Q834
96 889 120T986 187T1058 285T1107 405T1136 537T1145 672ZM1475 680Q1475 533 1426 404T1285 177T1067 24T786 -33Q633 -33 503 15T278 157T130 386T76 696Q76 847 123 977T258 1203T475 1352T768 1407Q874 1407 968 1381T1140 1307T1281 1193T1386 1045T1452
872T1475 680ZM1105 1795Q1105 1785 1101 1773T1089 1748T1072 1726T1052 1709L720 1528H577L857 1838Q875 1857 889 1869T918 1889T949 1900T986 1903Q1019 1903 1041 1893T1078 1868T1099 1833T1105 1795Z" />
<glyph unicode="&#xd4;" glyph-name="Ocircumflex" horiz-adv-x="1548" d="M1145 672Q1145 792 1123 900T1055 1091T943 1221T786 1270Q715 1270 659 1246T561 1181T488 1083T439 963T412 829T403 690Q403 617 412 545T441 407T490 284T560 186T651 120T766 96Q834
96 889 120T986 187T1058 285T1107 405T1136 537T1145 672ZM1475 680Q1475 533 1426 404T1285 177T1067 24T786 -33Q633 -33 503 15T278 157T130 386T76 696Q76 847 123 977T258 1203T475 1352T768 1407Q874 1407 968 1381T1140 1307T1281 1193T1386 1045T1452
872T1475 680ZM953 1528L775 1723L597 1528H427L654 1879H896L1123 1528H953Z" />
<glyph unicode="&#xd5;" glyph-name="Otilde" horiz-adv-x="1548" d="M1145 672Q1145 792 1123 900T1055 1091T943 1221T786 1270Q715 1270 659 1246T561 1181T488 1083T439 963T412 829T403 690Q403 617 412 545T441 407T490 284T560 186T651 120T766 96Q834
96 889 120T986 187T1058 285T1107 405T1136 537T1145 672ZM1475 680Q1475 533 1426 404T1285 177T1067 24T786 -33Q633 -33 503 15T278 157T130 386T76 696Q76 847 123 977T258 1203T475 1352T768 1407Q874 1407 968 1381T1140 1307T1281 1193T1386 1045T1452
872T1475 680ZM1135 1852Q1122 1799 1101 1753T1050 1673T980 1618T887 1598Q847 1598 817 1613T758 1647T695 1680T617 1696Q583 1696 558 1668T527 1598H416Q429 1651 450 1697T501 1777T571 1832T662 1852Q702 1852 733 1837T793 1804T856 1771T934 1756Q950
1756 965 1763T993 1784T1013 1814T1024 1852H1135Z" />
<glyph unicode="&#xd6;" glyph-name="Odieresis" horiz-adv-x="1548" d="M1145 672Q1145 792 1123 900T1055 1091T943 1221T786 1270Q715 1270 659 1246T561 1181T488 1083T439 963T412 829T403 690Q403 617 412 545T441 407T490 284T560 186T651 120T766 96Q834
96 889 120T986 187T1058 285T1107 405T1136 537T1145 672ZM1475 680Q1475 533 1426 404T1285 177T1067 24T786 -33Q633 -33 503 15T278 157T130 386T76 696Q76 847 123 977T258 1203T475 1352T768 1407Q874 1407 968 1381T1140 1307T1281 1193T1386 1045T1452
872T1475 680ZM702 1739Q702 1710 691 1685T661 1640T615 1609T560 1598Q531 1598 505 1609T460 1639T430 1684T419 1739Q419 1768 430 1794T460 1839T505 1870T560 1881Q589 1881 615 1870T660 1840T691 1794T702 1739ZM1132 1739Q1132 1710 1121 1685T1091 1640T1045
1609T990 1598Q961 1598 936 1609T891 1639T860 1684T849 1739Q849 1768 860 1794T890 1839T935 1870T990 1881Q1019 1881 1045 1870T1090 1840T1121 1794T1132 1739Z" />
<glyph unicode="&#xd7;" glyph-name="multiply" horiz-adv-x="2048" d="M1497 61L1024 537L551 61L471 141L942 614L471 1087L551 1167L1024 692L1497 1167L1577 1087L1106 614L1577 141L1497 61Z" />
<glyph unicode="&#xd8;" glyph-name="Oslash" horiz-adv-x="1548" d="M1182 1280Q1251 1230 1305 1165T1397 1023T1455 860T1475 680Q1475 533 1426 404T1285 177T1067 24T786 -33Q698 -33 618 -18T467 29L348 -178L244 -117L360 88Q228 179 152 332T76 696Q76
847 123 977T258 1203T475 1352T768 1407Q855 1407 932 1390T1077 1341L1186 1532L1292 1473L1182 1280ZM557 188Q597 145 649 121T766 96Q834 96 889 120T986 187T1058 285T1107 405T1136 537T1145 672Q1145 786 1124 889T1063 1073L557 188ZM987 1184Q947 1226
897 1248T786 1270Q715 1270 659 1246T561 1181T488 1083T439 963T412 829T403 690Q403 585 422 484T481 299L987 1184Z" />
<glyph unicode="&#xd9;" glyph-name="Ugrave" horiz-adv-x="1493" d="M1331 1260Q1314 1258 1300 1246T1286 1214V520Q1286 369 1252 264T1149 92T975 -3T725 -33Q461 -33 332 108T203 520V1214Q203 1234 189 1246T156 1260L45 1270V1374H651V1270L541 1260Q524
1258 510 1246T496 1214V504Q496 312 577 225T827 137Q908 137 965 163T1059 238T1113 353T1130 504V1214Q1130 1234 1117 1246T1085 1260L969 1270V1374H1440V1270L1331 1260ZM818 1528L486 1709Q475 1715 466 1725T450 1748T439 1772T435 1795Q435 1813 441 1832T460
1867T496 1893T552 1903Q573 1903 589 1900T619 1890T648 1870T681 1838L961 1528H818Z" />
<glyph unicode="&#xda;" glyph-name="Uacute" horiz-adv-x="1493" d="M1331 1260Q1314 1258 1300 1246T1286 1214V520Q1286 369 1252 264T1149 92T975 -3T725 -33Q461 -33 332 108T203 520V1214Q203 1234 189 1246T156 1260L45 1270V1374H651V1270L541 1260Q524
1258 510 1246T496 1214V504Q496 312 577 225T827 137Q908 137 965 163T1059 238T1113 353T1130 504V1214Q1130 1234 1117 1246T1085 1260L969 1270V1374H1440V1270L1331 1260ZM1090 1795Q1090 1785 1086 1773T1074 1748T1057 1726T1037 1709L705 1528H562L842
1838Q860 1857 874 1869T903 1889T934 1900T971 1903Q1004 1903 1026 1893T1063 1868T1084 1833T1090 1795Z" />
<glyph unicode="&#xdb;" glyph-name="Ucircumflex" horiz-adv-x="1493" d="M1331 1260Q1314 1258 1300 1246T1286 1214V520Q1286 369 1252 264T1149 92T975 -3T725 -33Q461 -33 332 108T203 520V1214Q203 1234 189 1246T156 1260L45 1270V1374H651V1270L541 1260Q524
1258 510 1246T496 1214V504Q496 312 577 225T827 137Q908 137 965 163T1059 238T1113 353T1130 504V1214Q1130 1234 1117 1246T1085 1260L969 1270V1374H1440V1270L1331 1260ZM938 1528L760 1723L582 1528H412L639 1879H881L1108 1528H938Z" />
<glyph unicode="&#xdc;" glyph-name="Udieresis" horiz-adv-x="1493" d="M1331 1260Q1314 1258 1300 1246T1286 1214V520Q1286 369 1252 264T1149 92T975 -3T725 -33Q461 -33 332 108T203 520V1214Q203 1234 189 1246T156 1260L45 1270V1374H651V1270L541 1260Q524
1258 510 1246T496 1214V504Q496 312 577 225T827 137Q908 137 965 163T1059 238T1113 353T1130 504V1214Q1130 1234 1117 1246T1085 1260L969 1270V1374H1440V1270L1331 1260ZM687 1739Q687 1710 676 1685T646 1640T600 1609T545 1598Q516 1598 490 1609T445 1639T415
1684T404 1739Q404 1768 415 1794T445 1839T490 1870T545 1881Q574 1881 600 1870T645 1840T676 1794T687 1739ZM1117 1739Q1117 1710 1106 1685T1076 1640T1030 1609T975 1598Q946 1598 921 1609T876 1639T845 1684T834 1739Q834 1768 845 1794T875 1839T920 1870T975
1881Q1004 1881 1030 1870T1075 1840T1106 1794T1117 1739Z" />
<glyph unicode="&#xdd;" glyph-name="Yacute" horiz-adv-x="1358" d="M1219 1251L840 594V160Q840 140 853 129T885 115L1010 104V0H375V104L500 115Q517 117 532 128T547 160V537L152 1251L20 1270V1374H602V1270L494 1260Q483 1260 478 1245T483 1210L741 725L1020
1212Q1031 1231 1028 1246T1010 1262L885 1270V1374H1337V1270L1219 1251ZM1008 1795Q1008 1785 1004 1773T992 1748T975 1726T955 1709L623 1528H480L760 1838Q778 1857 792 1869T821 1889T852 1900T889 1903Q922 1903 944 1893T981 1868T1002 1833T1008 1795Z"
/>
<glyph unicode="&#xde;" glyph-name="Thorn" horiz-adv-x="1257" d="M1182 711Q1182 603 1147 519T1043 377T873 289T639 258Q619 258 596 258T553 261Q529 262 506 264V156Q506 137 519 125T551 111L674 104V0H53V104L168 111Q187 113 200 125T213 156V1219Q213
1239 200 1251T168 1264L53 1270V1374H674V1270L551 1264Q532 1264 519 1252T506 1219V1124L713 1120Q806 1118 891 1097T1040 1029T1143 903T1182 711ZM877 702Q877 779 857 836T802 931T718 987T612 1006Q586 1006 559 1003T506 997V385Q515 384 526 384Q534
383 544 383H565Q719 383 798 459T877 702Z" />
<glyph unicode="&#xdf;" glyph-name="germandbls" horiz-adv-x="1386" d="M55 96L137 102Q156 104 170 115T184 147V907Q184 956 192 1021T224 1155T287 1291T392 1412T548 1497T762 1530Q840 1530 914 1507T1047 1436T1142 1317T1178 1147Q1178 1097 1173 1052T1157
969Q1139 972 1123 972T1096 971Q1062 970 1029 962T970 936T927 891T911 825Q911 781 941 747T1018 680T1117 615T1216 541T1292 446T1323 322Q1323 242 1290 178T1202 69T1073 0T920 -25Q865 -25 817 -19T731 -5Q688 4 651 16V313H786L803 121Q813 112 828 106Q841
101 860 97T909 92Q946 92 975 106T1025 142T1056 192T1067 248Q1067 291 1049 322T1001 380T934 427T856 470T779 516T711 571T663 642T645 735Q645 793 662 838T711 918T785 975T877 1010Q882 1042 886 1072L892 1124Q895 1150 895 1167Q895 1205 885 1247T852
1324T794 1382T711 1405Q646 1405 603 1380T531 1314T488 1227T467 1136T460 1058T459 1012V147Q459 126 473 115T506 102L588 96V0H55V96Z" />
<glyph unicode="&#xe0;" glyph-name="agrave" horiz-adv-x="1133" d="M717 0L690 102Q637 66 579 38Q528 14 465 -5T334 -25Q278 -25 230 -7T145 46T87 130T66 240Q66 286 73 325T103 397T168 461T279 521T450 579T692 639V664Q692 679 693 691Q693 705 694 719Q695
748 688 781T660 843T601 890T502 909Q481 909 465 908T437 905Q424 903 414 901V707H203Q177 705 157 712Q140 718 126 733T111 780Q111 837 151 882T257 958T404 1007T567 1024Q655 1024 728 1011T853 961T934 855T963 676V150Q963 131 976 118T1008 102L1098
96V0H717ZM690 528Q591 508 527 487T424 439T371 378T356 297Q356 265 366 238T396 190T443 157T502 145Q535 145 568 152T629 167Q661 177 690 190V528ZM608 1128L276 1309Q265 1315 256 1325T240 1348T229 1372T225 1395Q225 1413 231 1432T250 1467T286 1493T342
1503Q363 1503 379 1500T409 1490T438 1470T471 1438L751 1128H608Z" />
<glyph unicode="&#xe1;" glyph-name="aacute" horiz-adv-x="1133" d="M717 0L690 102Q637 66 579 38Q528 14 465 -5T334 -25Q278 -25 230 -7T145 46T87 130T66 240Q66 286 73 325T103 397T168 461T279 521T450 579T692 639V664Q692 679 693 691Q693 705 694 719Q695
748 688 781T660 843T601 890T502 909Q481 909 465 908T437 905Q424 903 414 901V707H203Q177 705 157 712Q140 718 126 733T111 780Q111 837 151 882T257 958T404 1007T567 1024Q655 1024 728 1011T853 961T934 855T963 676V150Q963 131 976 118T1008 102L1098
96V0H717ZM690 528Q591 508 527 487T424 439T371 378T356 297Q356 265 366 238T396 190T443 157T502 145Q535 145 568 152T629 167Q661 177 690 190V528ZM880 1395Q880 1385 876 1373T864 1348T847 1326T827 1309L495 1128H352L632 1438Q650 1457 664 1469T693
1489T724 1500T761 1503Q794 1503 816 1493T853 1468T874 1433T880 1395Z" />
<glyph unicode="&#xe2;" glyph-name="acircumflex" horiz-adv-x="1133" d="M717 0L690 102Q637 66 579 38Q528 14 465 -5T334 -25Q278 -25 230 -7T145 46T87 130T66 240Q66 286 73 325T103 397T168 461T279 521T450 579T692 639V664Q692 679 693 691Q693 705 694
719Q695 748 688 781T660 843T601 890T502 909Q481 909 465 908T437 905Q424 903 414 901V707H203Q177 705 157 712Q140 718 126 733T111 780Q111 837 151 882T257 958T404 1007T567 1024Q655 1024 728 1011T853 961T934 855T963 676V150Q963 131 976 118T1008
102L1098 96V0H717ZM690 528Q591 508 527 487T424 439T371 378T356 297Q356 265 366 238T396 190T443 157T502 145Q535 145 568 152T629 167Q661 177 690 190V528ZM728 1128L550 1323L372 1128H202L429 1479H671L898 1128H728Z" />
<glyph unicode="&#xe3;" glyph-name="atilde" horiz-adv-x="1133" d="M717 0L690 102Q637 66 579 38Q528 14 465 -5T334 -25Q278 -25 230 -7T145 46T87 130T66 240Q66 286 73 325T103 397T168 461T279 521T450 579T692 639V664Q692 679 693 691Q693 705 694 719Q695
748 688 781T660 843T601 890T502 909Q481 909 465 908T437 905Q424 903 414 901V707H203Q177 705 157 712Q140 718 126 733T111 780Q111 837 151 882T257 958T404 1007T567 1024Q655 1024 728 1011T853 961T934 855T963 676V150Q963 131 976 118T1008 102L1098
96V0H717ZM690 528Q591 508 527 487T424 439T371 378T356 297Q356 265 366 238T396 190T443 157T502 145Q535 145 568 152T629 167Q661 177 690 190V528ZM910 1452Q897 1399 876 1353T825 1273T755 1218T662 1198Q622 1198 592 1213T533 1247T470 1280T392 1296Q358
1296 333 1268T302 1198H191Q204 1251 225 1297T276 1377T346 1432T437 1452Q477 1452 508 1437T568 1404T631 1371T709 1356Q725 1356 740 1363T768 1384T788 1414T799 1452H910Z" />
<glyph unicode="&#xe4;" glyph-name="adieresis" horiz-adv-x="1133" d="M717 0L690 102Q637 66 579 38Q528 14 465 -5T334 -25Q278 -25 230 -7T145 46T87 130T66 240Q66 286 73 325T103 397T168 461T279 521T450 579T692 639V664Q692 679 693 691Q693 705 694
719Q695 748 688 781T660 843T601 890T502 909Q481 909 465 908T437 905Q424 903 414 901V707H203Q177 705 157 712Q140 718 126 733T111 780Q111 837 151 882T257 958T404 1007T567 1024Q655 1024 728 1011T853 961T934 855T963 676V150Q963 131 976 118T1008
102L1098 96V0H717ZM690 528Q591 508 527 487T424 439T371 378T356 297Q356 265 366 238T396 190T443 157T502 145Q535 145 568 152T629 167Q661 177 690 190V528ZM477 1339Q477 1310 466 1285T436 1240T390 1209T335 1198Q306 1198 280 1209T235 1239T205 1284T194
1339Q194 1368 205 1394T235 1439T280 1470T335 1481Q364 1481 390 1470T435 1440T466 1394T477 1339ZM907 1339Q907 1310 896 1285T866 1240T820 1209T765 1198Q736 1198 711 1209T666 1239T635 1284T624 1339Q624 1368 635 1394T665 1439T710 1470T765 1481Q794
1481 820 1470T865 1440T896 1394T907 1339Z" />
<glyph unicode="&#xe5;" glyph-name="aring" horiz-adv-x="1133" d="M717 0L690 102Q637 66 579 38Q528 14 465 -5T334 -25Q278 -25 230 -7T145 46T87 130T66 240Q66 286 73 325T103 397T168 461T279 521T450 579T692 639V664Q692 679 693 691Q693 705 694 719Q695
748 688 781T660 843T601 890T502 909Q481 909 465 908T437 905Q424 903 414 901V707H203Q177 705 157 712Q140 718 126 733T111 780Q111 837 151 882T257 958T404 1007T567 1024Q655 1024 728 1011T853 961T934 855T963 676V150Q963 131 976 118T1008 102L1098
96V0H717ZM690 528Q591 508 527 487T424 439T371 378T356 297Q356 265 366 238T396 190T443 157T502 145Q535 145 568 152T629 167Q661 177 690 190V528ZM678 1386Q678 1413 668 1436T641 1478T600 1506T549 1516Q523 1516 500 1506T459 1478T431 1437T420 1386Q420
1359 430 1336T458 1295T499 1267T549 1257Q576 1257 599 1267T640 1294T668 1335T678 1386ZM809 1386Q809 1332 789 1285T733 1203T650 1148T549 1128Q496 1128 449 1148T367 1203T312 1285T291 1386Q291 1440 311 1487T367 1569T449 1625T549 1645Q603 1645 650
1625T732 1570T788 1487T809 1386Z" />
<glyph unicode="&#xe6;" glyph-name="ae" horiz-adv-x="1579" d="M1233 670Q1233 701 1230 742T1211 822T1167 886T1085 913Q1042 913 1013 897T964 854T934 796T918 731T912 672T911 627H1233V670ZM655 532Q557 506 497 481T403 429T359 371T348 303Q348 272
356 245T381 196T422 163T479 150Q509 150 540 158T597 177Q627 189 655 205V532ZM1513 553Q1513 548 1513 541T1512 527Q1511 519 1511 512H918V276Q947 241 990 215Q1027 192 1084 173T1221 154Q1281 154 1334 171T1426 209Q1472 233 1511 264V102Q1464 69 1405
43Q1354 20 1285 2T1130 -16Q1030 -16 954 7T827 58Q766 91 723 133Q668 91 604 58Q577 44 545 31T478 8T405 -9T328 -16Q259 -16 209 6T128 66T81 152T66 252Q66 336 97 393T198 493T380 570T655 643V700Q655 810 610 861T465 913Q455 913 443 912T420 909Q407
907 393 905V709H209Q179 709 160 712T129 725T114 749T109 786Q109 843 148 887T249 963T389 1010T541 1026Q622 1026 679 1009T774 970Q817 945 846 915Q877 945 920 970Q957 991 1010 1008T1133 1026Q1237 1026 1309 987T1427 882T1492 731T1513 553Z" />
<glyph unicode="&#xe7;" glyph-name="ccedilla" horiz-adv-x="1028" d="M821 -268Q821 -318 802 -356T750 -420T670 -459T569 -473Q537 -473 507 -470T454 -462Q427 -458 403 -451V-348Q426 -353 449 -357Q469 -360 491 -362T532 -365Q552 -365 573 -362T612 -352T641
-330T653 -295Q653 -277 646 -264T626 -242T597 -229T563 -225Q557 -225 550 -225T535 -227Q527 -228 518 -229V-23Q424 -17 349 16Q257 57 194 126T99 287T66 479Q66 600 107 700T220 873T388 984T594 1024Q675 1024 740 1008T851 961T923 890T948 799Q948 764
936 736T903 688T857 656T803 645Q771 645 750 649T713 659T687 673T666 688V918Q653 918 646 919T627 920Q580 920 534 896T450 825T390 706T367 539Q367 449 388 377T450 253T548 175T678 147Q725 147 772 160T858 190T926 223T965 248V90Q939 78 902 59T815
21T702 -11Q664 -19 620 -23V-111Q623 -112 627 -112Q632 -113 649 -113Q684 -113 715 -122T770 -150T807 -198T821 -268Z" />
<glyph unicode="&#xe8;" glyph-name="egrave" horiz-adv-x="1083" d="M727 668Q727 717 718 760T689 834T636 884T559 903Q502 903 464 878T402 812T368 721T358 623H727V668ZM1020 96Q967 61 901 35Q844 12 765 -6T588 -25Q457 -25 360 15T197 124T99 287T66
487Q66 603 102 701T206 871T369 983T582 1024Q702 1024 785 985T921 880T996 730T1020 557V508H348Q348 424 369 357T430 243T530 171T664 145Q742 145 806 162T919 202Q974 228 1020 260V96ZM628 1128L296 1309Q285 1315 276 1325T260 1348T249 1372T245 1395Q245
1413 251 1432T270 1467T306 1493T362 1503Q383 1503 399 1500T429 1490T458 1470T491 1438L771 1128H628Z" />
<glyph unicode="&#xe9;" glyph-name="eacute" horiz-adv-x="1083" d="M727 668Q727 717 718 760T689 834T636 884T559 903Q502 903 464 878T402 812T368 721T358 623H727V668ZM1020 96Q967 61 901 35Q844 12 765 -6T588 -25Q457 -25 360 15T197 124T99 287T66
487Q66 603 102 701T206 871T369 983T582 1024Q702 1024 785 985T921 880T996 730T1020 557V508H348Q348 424 369 357T430 243T530 171T664 145Q742 145 806 162T919 202Q974 228 1020 260V96ZM900 1395Q900 1385 896 1373T884 1348T867 1326T847 1309L515 1128H372L652
1438Q670 1457 684 1469T713 1489T744 1500T781 1503Q814 1503 836 1493T873 1468T894 1433T900 1395Z" />
<glyph unicode="&#xea;" glyph-name="ecircumflex" horiz-adv-x="1083" d="M727 668Q727 717 718 760T689 834T636 884T559 903Q502 903 464 878T402 812T368 721T358 623H727V668ZM1020 96Q967 61 901 35Q844 12 765 -6T588 -25Q457 -25 360 15T197 124T99 287T66
487Q66 603 102 701T206 871T369 983T582 1024Q702 1024 785 985T921 880T996 730T1020 557V508H348Q348 424 369 357T430 243T530 171T664 145Q742 145 806 162T919 202Q974 228 1020 260V96ZM748 1128L570 1323L392 1128H222L449 1479H691L918 1128H748Z" />
<glyph unicode="&#xeb;" glyph-name="edieresis" horiz-adv-x="1083" d="M727 668Q727 717 718 760T689 834T636 884T559 903Q502 903 464 878T402 812T368 721T358 623H727V668ZM1020 96Q967 61 901 35Q844 12 765 -6T588 -25Q457 -25 360 15T197 124T99 287T66
487Q66 603 102 701T206 871T369 983T582 1024Q702 1024 785 985T921 880T996 730T1020 557V508H348Q348 424 369 357T430 243T530 171T664 145Q742 145 806 162T919 202Q974 228 1020 260V96ZM497 1339Q497 1310 486 1285T456 1240T410 1209T355 1198Q326 1198
300 1209T255 1239T225 1284T214 1339Q214 1368 225 1394T255 1439T300 1470T355 1481Q384 1481 410 1470T455 1440T486 1394T497 1339ZM927 1339Q927 1310 916 1285T886 1240T840 1209T785 1198Q756 1198 731 1209T686 1239T655 1284T644 1339Q644 1368 655 1394T685
1439T730 1470T785 1481Q814 1481 840 1470T885 1440T916 1394T927 1339Z" />
<glyph unicode="&#xec;" glyph-name="igrave" horiz-adv-x="682" d="M66 0V96L160 102Q178 104 191 117T205 150V838H74V922L373 1024H477V150Q477 131 491 118T524 102L623 96V0H66ZM402 1128L70 1309Q59 1315 50 1325T34 1348T23 1372T19 1395Q19 1413 25 1432T44
1467T80 1493T136 1503Q157 1503 173 1500T203 1490T232 1470T265 1438L545 1128H402Z" />
<glyph unicode="&#xed;" glyph-name="iacute" horiz-adv-x="682" d="M66 0V96L160 102Q178 104 191 117T205 150V838H74V922L373 1024H477V150Q477 131 491 118T524 102L623 96V0H66ZM931 1395Q931 1385 927 1373T915 1348T898 1326T878 1309L546 1128H403L683
1438Q701 1457 715 1469T744 1489T775 1500T812 1503Q845 1503 867 1493T904 1468T925 1433T931 1395Z" />
<glyph unicode="&#xee;" glyph-name="icircumflex" horiz-adv-x="682" d="M66 0V96L160 102Q178 104 191 117T205 150V838H74V922L373 1024H477V150Q477 131 491 118T524 102L623 96V0H66ZM779 1128L601 1323L423 1128H253L480 1479H722L949 1128H779Z" />
<glyph unicode="&#xef;" glyph-name="idieresis" horiz-adv-x="682" d="M66 0V96L160 102Q178 104 191 117T205 150V838H74V922L373 1024H477V150Q477 131 491 118T524 102L623 96V0H66ZM528 1339Q528 1310 517 1285T487 1240T441 1209T386 1198Q357 1198 331
1209T286 1239T256 1284T245 1339Q245 1368 256 1394T286 1439T331 1470T386 1481Q415 1481 441 1470T486 1440T517 1394T528 1339ZM958 1339Q958 1310 947 1285T917 1240T871 1209T816 1198Q787 1198 762 1209T717 1239T686 1284T675 1339Q675 1368 686 1394T716
1439T761 1470T816 1481Q845 1481 871 1470T916 1440T947 1394T958 1339Z" />
<glyph unicode="&#xf0;" glyph-name="eth" horiz-adv-x="1184" d="M827 524Q827 602 819 663T799 767T776 839T758 879Q740 889 721 898Q704 906 683 912T639 918Q564 918 513 882T429 786T382 648T367 487Q367 412 377 341T414 214T485 124T598 90Q664 90 708
126T778 222T816 360T827 524ZM1118 537Q1118 401 1080 296T975 120T814 12T612 -25Q473 -25 371 15T201 126T100 289T66 489Q66 592 98 688T193 859T347 979T555 1024Q576 1024 600 1020T646 1012T684 1003T705 999Q703 1002 694 1015T673 1045T646 1084T617 1125T589
1161T567 1186L322 1055L272 1149L494 1266L426 1337L244 1343V1434L565 1540L723 1386L956 1511L1008 1417L788 1300Q880 1195 953 1073Q984 1021 1013 960T1066 830T1103 688T1118 537Z" />
<glyph unicode="&#xf1;" glyph-name="ntilde" horiz-adv-x="1280" d="M702 0V96L778 102Q797 104 810 117T823 150V631Q823 670 814 707T785 772T733 818T655 836Q613 836 577 832T515 822Q484 816 459 809V150Q459 131 473 118T506 102L567 96V0H66V96L139 102Q158
104 171 117T184 150V836H43V920L352 1024H459V899Q512 934 572 961Q623 984 687 1004T817 1024Q905 1024 960 994T1045 913T1085 799T1096 668V150Q1096 131 1110 118T1143 102L1206 96V0H702ZM984 1452Q971 1399 950 1353T899 1273T829 1218T736 1198Q696 1198
666 1213T607 1247T544 1280T466 1296Q432 1296 407 1268T376 1198H265Q278 1251 299 1297T350 1377T420 1432T511 1452Q551 1452 582 1437T642 1404T705 1371T783 1356Q799 1356 814 1363T842 1384T862 1414T873 1452H984Z" />
<glyph unicode="&#xf2;" glyph-name="ograve" horiz-adv-x="1196" d="M827 496Q827 539 823 586T810 680T783 767T741 839T680 888T598 907Q529 907 485 869T417 772T383 641T373 504Q373 460 376 412T389 318T415 231T456 159T517 109T600 90Q670 90 714 127T783
224T817 355T827 496ZM1133 494Q1133 379 1097 284T990 120T820 13T592 -25Q475 -25 379 11T213 114T105 277T66 496Q66 622 106 720T217 885T388 988T606 1024Q733 1024 831 985T996 876T1098 708T1133 494ZM657 1128L325 1309Q314 1315 305 1325T289 1348T278
1372T274 1395Q274 1413 280 1432T299 1467T335 1493T391 1503Q412 1503 428 1500T458 1490T487 1470T520 1438L800 1128H657Z" />
<glyph unicode="&#xf3;" glyph-name="oacute" horiz-adv-x="1196" d="M827 496Q827 539 823 586T810 680T783 767T741 839T680 888T598 907Q529 907 485 869T417 772T383 641T373 504Q373 460 376 412T389 318T415 231T456 159T517 109T600 90Q670 90 714 127T783
224T817 355T827 496ZM1133 494Q1133 379 1097 284T990 120T820 13T592 -25Q475 -25 379 11T213 114T105 277T66 496Q66 622 106 720T217 885T388 988T606 1024Q733 1024 831 985T996 876T1098 708T1133 494ZM929 1395Q929 1385 925 1373T913 1348T896 1326T876
1309L544 1128H401L681 1438Q699 1457 713 1469T742 1489T773 1500T810 1503Q843 1503 865 1493T902 1468T923 1433T929 1395Z" />
<glyph unicode="&#xf4;" glyph-name="ocircumflex" horiz-adv-x="1196" d="M827 496Q827 539 823 586T810 680T783 767T741 839T680 888T598 907Q529 907 485 869T417 772T383 641T373 504Q373 460 376 412T389 318T415 231T456 159T517 109T600 90Q670 90 714
127T783 224T817 355T827 496ZM1133 494Q1133 379 1097 284T990 120T820 13T592 -25Q475 -25 379 11T213 114T105 277T66 496Q66 622 106 720T217 885T388 988T606 1024Q733 1024 831 985T996 876T1098 708T1133 494ZM777 1128L599 1323L421 1128H251L478 1479H720L947
1128H777Z" />
<glyph unicode="&#xf5;" glyph-name="otilde" horiz-adv-x="1196" d="M827 496Q827 539 823 586T810 680T783 767T741 839T680 888T598 907Q529 907 485 869T417 772T383 641T373 504Q373 460 376 412T389 318T415 231T456 159T517 109T600 90Q670 90 714 127T783
224T817 355T827 496ZM1133 494Q1133 379 1097 284T990 120T820 13T592 -25Q475 -25 379 11T213 114T105 277T66 496Q66 622 106 720T217 885T388 988T606 1024Q733 1024 831 985T996 876T1098 708T1133 494ZM959 1452Q946 1399 925 1353T874 1273T804 1218T711
1198Q671 1198 641 1213T582 1247T519 1280T441 1296Q407 1296 382 1268T351 1198H240Q253 1251 274 1297T325 1377T395 1432T486 1452Q526 1452 557 1437T617 1404T680 1371T758 1356Q774 1356 789 1363T817 1384T837 1414T848 1452H959Z" />
<glyph unicode="&#xf6;" glyph-name="odieresis" horiz-adv-x="1196" d="M827 496Q827 539 823 586T810 680T783 767T741 839T680 888T598 907Q529 907 485 869T417 772T383 641T373 504Q373 460 376 412T389 318T415 231T456 159T517 109T600 90Q670 90 714 127T783
224T817 355T827 496ZM1133 494Q1133 379 1097 284T990 120T820 13T592 -25Q475 -25 379 11T213 114T105 277T66 496Q66 622 106 720T217 885T388 988T606 1024Q733 1024 831 985T996 876T1098 708T1133 494ZM526 1339Q526 1310 515 1285T485 1240T439 1209T384
1198Q355 1198 329 1209T284 1239T254 1284T243 1339Q243 1368 254 1394T284 1439T329 1470T384 1481Q413 1481 439 1470T484 1440T515 1394T526 1339ZM956 1339Q956 1310 945 1285T915 1240T869 1209T814 1198Q785 1198 760 1209T715 1239T684 1284T673 1339Q673
1368 684 1394T714 1439T759 1470T814 1481Q843 1481 869 1470T914 1440T945 1394T956 1339Z" />
<glyph unicode="&#xf7;" glyph-name="divide" horiz-adv-x="2048" d="M1147 285Q1147 259 1138 237T1111 199T1072 174T1024 164Q998 164 976 173T937 199T911 237T901 285Q901 311 910 333T937 372T976 398T1024 408Q1049 408 1071 399T1111 373T1137 334T1147
285ZM410 551V678H1638V551H410ZM1147 944Q1147 918 1138 896T1111 857T1072 831T1024 821Q998 821 976 830T937 856T911 895T901 944Q901 969 910 991T937 1031T976 1057T1024 1067Q1049 1067 1071 1058T1111 1031T1137 992T1147 944Z" />
<glyph unicode="&#xf8;" glyph-name="oslash" horiz-adv-x="1196" d="M827 496Q827 558 819 626T788 754L457 158Q483 127 517 109T600 90Q670 90 714 127T783 224T817 355T827 496ZM727 856Q702 881 671 894T598 907Q529 907 485 869T417 772T383 641T373 504Q373
448 378 388T399 274L727 856ZM1133 494Q1133 379 1097 284T990 120T820 13T592 -25Q532 -25 478 -16T375 12L274 -170L184 -113L281 59Q178 125 122 235T66 496Q66 622 106 720T217 885T388 988T606 1024Q717 1024 803 993L905 1176L995 1124L899 952Q1014 884
1073 766T1133 494Z" />
<glyph unicode="&#xf9;" glyph-name="ugrave" horiz-adv-x="1270" d="M811 0V113Q760 74 705 44Q658 18 601 -3T487 -25Q400 -25 342 -2T248 64T199 169T184 309V838H51V922L352 1024H459V389Q459 351 464 311T488 238T544 184T647 162Q679 162 708 167T761 179Q787
187 811 197V838H682V922L981 1024H1085V150Q1085 131 1099 118T1133 102L1223 96V0H811ZM695 1128L363 1309Q352 1315 343 1325T327 1348T316 1372T312 1395Q312 1413 318 1432T337 1467T373 1493T429 1503Q450 1503 466 1500T496 1490T525 1470T558 1438L838
1128H695Z" />
<glyph unicode="&#xfa;" glyph-name="uacute" horiz-adv-x="1270" d="M811 0V113Q760 74 705 44Q658 18 601 -3T487 -25Q400 -25 342 -2T248 64T199 169T184 309V838H51V922L352 1024H459V389Q459 351 464 311T488 238T544 184T647 162Q679 162 708 167T761 179Q787
187 811 197V838H682V922L981 1024H1085V150Q1085 131 1099 118T1133 102L1223 96V0H811ZM967 1395Q967 1385 963 1373T951 1348T934 1326T914 1309L582 1128H439L719 1438Q737 1457 751 1469T780 1489T811 1500T848 1503Q881 1503 903 1493T940 1468T961 1433T967
1395Z" />
<glyph unicode="&#xfb;" glyph-name="ucircumflex" horiz-adv-x="1270" d="M811 0V113Q760 74 705 44Q658 18 601 -3T487 -25Q400 -25 342 -2T248 64T199 169T184 309V838H51V922L352 1024H459V389Q459 351 464 311T488 238T544 184T647 162Q679 162 708 167T761
179Q787 187 811 197V838H682V922L981 1024H1085V150Q1085 131 1099 118T1133 102L1223 96V0H811ZM815 1128L637 1323L459 1128H289L516 1479H758L985 1128H815Z" />
<glyph unicode="&#xfc;" glyph-name="udieresis" horiz-adv-x="1270" d="M811 0V113Q760 74 705 44Q658 18 601 -3T487 -25Q400 -25 342 -2T248 64T199 169T184 309V838H51V922L352 1024H459V389Q459 351 464 311T488 238T544 184T647 162Q679 162 708 167T761
179Q787 187 811 197V838H682V922L981 1024H1085V150Q1085 131 1099 118T1133 102L1223 96V0H811ZM564 1339Q564 1310 553 1285T523 1240T477 1209T422 1198Q393 1198 367 1209T322 1239T292 1284T281 1339Q281 1368 292 1394T322 1439T367 1470T422 1481Q451 1481
477 1470T522 1440T553 1394T564 1339ZM994 1339Q994 1310 983 1285T953 1240T907 1209T852 1198Q823 1198 798 1209T753 1239T722 1284T711 1339Q711 1368 722 1394T752 1439T797 1470T852 1481Q881 1481 907 1470T952 1440T983 1394T994 1339Z" />
<glyph unicode="&#xfd;" glyph-name="yacute" horiz-adv-x="1159" d="M1032 889L678 20Q659 -26 636 -80T585 -188T522 -293T446 -383Q403 -425 353 -449T242 -473Q212 -473 180 -462T121 -429T77 -377T61 -309Q61 -281 71 -258T98 -215T136 -182T180 -158L354
-291Q382 -265 406 -229T450 -155T484 -80T506 -18L141 891L20 903V999H559V903L465 897Q446 895 437 882T434 852L645 326L862 852Q868 867 858 881T831 897L741 903V999H1141V903L1032 889ZM930 1395Q930 1385 926 1373T914 1348T897 1326T877 1309L545 1128H402L682
1438Q700 1457 714 1469T743 1489T774 1500T811 1503Q844 1503 866 1493T903 1468T924 1433T930 1395Z" />
<glyph unicode="&#xfe;" glyph-name="thorn" horiz-adv-x="1237" d="M868 498Q868 565 853 627T806 735T726 810T610 838Q583 838 557 833T508 822Q482 815 459 807V111Q479 103 499 98Q516 93 535 90T571 86Q645 86 700 118T793 205T849 336T868 498ZM1171 528Q1171
404 1132 302T1021 128T847 15T618 -25Q587 -25 559 -22T508 -15Q482 -11 459 -4V-299Q459 -319 471 -332T504 -346L612 -352V-449H49V-352L139 -346Q158 -346 171 -333T184 -299V1329H49V1413L352 1516H459V895Q507 931 562 959Q609 983 667 1003T788 1024Q850
1024 903 1004T998 950T1073 868T1127 765T1160 650T1171 528Z" />
<glyph unicode="&#xff;" glyph-name="ydieresis" horiz-adv-x="1159" d="M1032 889L678 20Q659 -26 636 -80T585 -188T522 -293T446 -383Q403 -425 353 -449T242 -473Q212 -473 180 -462T121 -429T77 -377T61 -309Q61 -281 71 -258T98 -215T136 -182T180 -158L354
-291Q382 -265 406 -229T450 -155T484 -80T506 -18L141 891L20 903V999H559V903L465 897Q446 895 437 882T434 852L645 326L862 852Q868 867 858 881T831 897L741 903V999H1141V903L1032 889ZM527 1339Q527 1310 516 1285T486 1240T440 1209T385 1198Q356 1198
330 1209T285 1239T255 1284T244 1339Q244 1368 255 1394T285 1439T330 1470T385 1481Q414 1481 440 1470T485 1440T516 1394T527 1339ZM957 1339Q957 1310 946 1285T916 1240T870 1209T815 1198Q786 1198 761 1209T716 1239T685 1284T674 1339Q674 1368 685 1394T715
1439T760 1470T815 1481Q844 1481 870 1470T915 1440T946 1394T957 1339Z" />
</font>
</defs>
</svg>
